<svg width="17" height="17" viewBox="0 0 17 17" fill="none" xmlns="http://www.w3.org/2000/svg">
<g clip-path="url(#clip0_1_1870)">
<path d="M15.3942 5.22257C15.3942 5.23386 15.3942 5.24797 15.3913 5.25644C15.3766 5.36651 15.3766 5.47658 15.3854 5.58948C15.3913 5.6177 15.3972 5.64592 15.4207 5.6685C15.4589 5.71083 15.5177 5.70237 15.5413 5.65157C15.553 5.62617 15.553 5.60076 15.5471 5.57536C15.5177 5.46811 15.5119 5.35522 15.5089 5.24515C15.5089 5.23951 15.5089 5.23104 15.5089 5.22257C15.5413 5.21975 15.5707 5.21693 15.5971 5.21693C15.6177 5.21411 15.6354 5.21128 15.6501 5.20281C15.6942 5.18024 15.6942 5.13226 15.6471 5.10968C15.6295 5.10121 15.606 5.09839 15.5854 5.09839C15.5119 5.10121 15.4384 5.10121 15.3648 5.10121C15.3384 5.10121 15.3119 5.10404 15.2854 5.10686C15.2707 5.10968 15.2531 5.10968 15.2413 5.11815C15.2207 5.12661 15.209 5.14072 15.209 5.16048C15.2119 5.18024 15.2207 5.19153 15.2413 5.19999C15.2531 5.20846 15.2678 5.21128 15.2825 5.21128C15.3178 5.21411 15.356 5.21975 15.3942 5.22257ZM16.2029 5.3524C16.2029 5.35522 16.2058 5.35804 16.2058 5.35804C16.2176 5.43425 16.2294 5.50763 16.2382 5.58101C16.2411 5.60641 16.2441 5.62899 16.2617 5.64874C16.2999 5.69672 16.3588 5.69108 16.3852 5.64028C16.397 5.61488 16.3999 5.58948 16.394 5.56125C16.3764 5.47658 16.3676 5.39191 16.3499 5.31006C16.3382 5.25926 16.3235 5.21128 16.3088 5.16613C16.2999 5.1379 16.2794 5.11814 16.2441 5.11532C16.2088 5.10968 16.1823 5.12661 16.1676 5.15201C16.15 5.17459 16.1353 5.19717 16.1235 5.22257C16.1029 5.26773 16.0853 5.31289 16.0618 5.35522C16.0588 5.36651 16.0559 5.37498 16.05 5.38344C16.0471 5.3778 16.0441 5.37498 16.0441 5.37498C16.0059 5.30442 15.9706 5.23386 15.9324 5.16613C15.9265 5.16048 15.9235 5.15484 15.9206 5.14919C15.903 5.12379 15.8824 5.10968 15.85 5.10968C15.8206 5.1125 15.7971 5.12944 15.7824 5.15484C15.7765 5.16613 15.7765 5.17459 15.7736 5.18588C15.7618 5.2762 15.7471 5.36651 15.7354 5.45683C15.7295 5.50763 15.7265 5.55843 15.7265 5.60923C15.7236 5.62052 15.7265 5.63463 15.7324 5.64592C15.7383 5.6685 15.7559 5.68261 15.7794 5.68543C15.8089 5.68826 15.8294 5.67979 15.8383 5.65721C15.8471 5.64028 15.85 5.62617 15.853 5.61205C15.8647 5.56125 15.8736 5.51327 15.8824 5.46529C15.8883 5.43707 15.8912 5.41449 15.9 5.38344C15.9059 5.39473 15.9118 5.4032 15.9177 5.41167C15.9441 5.44554 15.9706 5.4794 16.0029 5.50763C16.0353 5.5302 16.0618 5.52738 16.0882 5.50198C16.0941 5.49634 16.097 5.49352 16.1029 5.48787C16.1294 5.44836 16.1617 5.40885 16.1882 5.36933C16.1941 5.36369 16.197 5.35804 16.2029 5.3524Z" fill="#3A3B7B"/>
<path d="M9.42701 5.27798C9.40656 5.33162 9.40266 5.37026 9.4121 5.40238C9.42253 5.44606 9.44958 5.46035 9.4863 5.44925C9.8317 5.36727 10.5891 5.59995 10.8695 5.6648C10.9356 5.67842 10.9894 5.59648 10.9443 5.52302C10.8784 5.45188 10.1214 5.1473 9.83253 5.13069C9.7193 5.12455 9.51688 5.09668 9.42701 5.27798Z" fill="#3A3B7B"/>
<path d="M12.387 4.29201C12.4238 4.3124 12.4444 4.33185 12.4545 4.35359C12.4697 4.3821 12.4617 4.40182 12.4363 4.41189C12.208 4.51883 11.9041 4.97927 11.7815 5.13806C11.7518 5.17459 11.6832 5.15337 11.6729 5.09329C11.675 5.02537 11.9443 4.5257 12.0946 4.3896C12.1537 4.33647 12.2512 4.23221 12.387 4.29201Z" fill="#3A3B7B"/>
<path d="M10.569 4.06543C10.6132 4.03344 10.6592 4.02223 10.6826 4.04302C11.0271 4.32577 11.2098 4.77353 11.3229 5.18345C11.3271 5.193 11.3274 5.2067 11.324 5.221C11.3226 5.23322 11.3133 5.24613 11.2985 5.25612C11.2827 5.26714 11.2692 5.2705 11.2628 5.261C11.1118 5.06391 10.2495 4.29706 10.569 4.06543Z" fill="#3A3B7B"/>
<path d="M3.27426 8.96762C3.35682 8.90863 3.44658 8.85951 3.54156 8.8214C3.64093 8.79414 3.74685 8.79865 3.84331 8.83429C3.93975 8.86994 4.0215 8.93475 4.07615 9.01894C4.12505 9.10291 4.14417 9.19986 4.13067 9.29519C4.11718 9.39049 4.07178 9.47901 4.00131 9.54743C3.94668 9.60288 3.88465 9.65118 3.81688 9.6911C3.51484 9.87838 3.21011 10.0554 2.90539 10.2427C2.84304 10.2895 2.77689 10.3316 2.70758 10.3684C2.60217 10.4188 2.48169 10.4324 2.36698 10.4066C2.25228 10.3808 2.15057 10.3174 2.07943 10.2273C2.02625 10.1635 1.98137 10.0937 1.94578 10.0195C1.6571 9.43712 1.35772 8.85731 1.07973 8.26468C0.951427 8.00815 0.847181 7.7131 0.745607 7.42834C0.701662 7.3456 0.69308 7.24968 0.72169 7.16096C0.750299 7.07224 0.813843 6.99773 0.898804 6.95328C0.983765 6.90883 1.08344 6.89796 1.17663 6.92295C1.26982 6.94795 1.34918 7.00686 1.39782 7.08713C1.54732 7.27783 1.67967 7.48038 1.79342 7.6926C2.0821 8.20568 2.35742 8.71877 2.63541 9.21648C2.6516 9.24398 2.66945 9.27052 2.68887 9.296C2.89811 9.21157 3.09491 9.10117 3.27426 8.96762Z" fill="#3A3B7B"/>
<path d="M6.25904 8.78863C5.59882 9.53004 4.49219 9.34276 3.93621 8.38841C3.5406 7.71112 3.47111 6.59257 4.33182 5.88707C4.51562 5.73936 4.73539 5.63875 4.97065 5.5946C5.25911 5.55491 5.55327 5.60375 5.81106 5.73415C6.06885 5.86455 6.2771 6.06982 6.40607 6.32064C6.8765 7.14159 6.80968 8.1883 6.25904 8.78863ZM5.99174 7.05949C5.9216 6.85775 5.78089 6.68552 5.59346 6.57204C5.48741 6.49949 5.35853 6.46422 5.22856 6.47216C5.09856 6.48011 4.97541 6.53078 4.87978 6.61565C4.49755 6.94148 4.41734 7.7137 4.69533 8.17292C4.73077 8.2478 4.7828 8.31434 4.84783 8.3679C4.91286 8.42146 4.98931 8.46074 5.0718 8.48296C5.15429 8.50521 5.24084 8.50988 5.32542 8.49665C5.41 8.4834 5.49052 8.4526 5.5614 8.40637C5.7686 8.25218 5.92061 8.03987 5.99629 7.79896C6.07199 7.55803 6.0676 7.30047 5.98374 7.06207L5.99174 7.05949Z" fill="#3A3B7B"/>
<path d="M8.95334 7.38269C8.88576 7.39664 8.81593 7.39748 8.74798 7.38513C8.68006 7.37279 8.61536 7.34755 8.55775 7.31086C8.50734 7.28318 8.46394 7.24514 8.43067 7.19943C8.39743 7.15373 8.37515 7.10153 8.36544 7.04656C8.35571 6.99162 8.35883 6.93529 8.3745 6.88162C8.39019 6.82795 8.4181 6.77828 8.45618 6.73619C8.52254 6.6516 8.61673 6.59104 8.72348 6.56431C9.00219 6.48667 9.2891 6.43934 9.57884 6.42321C9.6425 6.4161 9.70699 6.42127 9.76853 6.43842C9.83008 6.45558 9.88743 6.48434 9.93724 6.52307C9.98702 6.56178 10.0283 6.60966 10.0585 6.66388C10.0888 6.7181 10.1074 6.77758 10.1134 6.83882C10.197 7.13962 10.2061 7.45502 10.1402 7.75983C9.8996 8.74496 9.07096 9.0836 8.14076 8.76805C7.87965 8.68368 7.65071 8.52648 7.48321 8.31653C7.2598 8.06369 7.1014 7.76405 7.02077 7.4417C6.95545 7.15465 6.9626 6.85679 7.04166 6.57295C7.12071 6.28911 7.26935 6.02753 7.47518 5.81006C7.67052 5.57369 7.92405 5.38767 8.21294 5.26874C8.39548 5.17217 8.60909 5.14471 8.81169 5.19178C8.85765 5.20398 8.89936 5.22777 8.93252 5.26067C8.96567 5.29357 8.98905 5.33438 9.00024 5.37888C9.01142 5.42337 9.00999 5.46993 8.99611 5.51372C8.98222 5.55751 8.95639 5.59693 8.92129 5.62791C8.85453 5.6859 8.78201 5.73746 8.70476 5.78184C8.46712 5.92708 8.26033 6.11425 8.09532 6.33341C7.98716 6.47523 7.91267 6.63809 7.87711 6.8105C7.84154 6.9829 7.84578 7.1607 7.88951 7.33139C7.95013 7.56412 8.08465 7.77301 8.27441 7.92913C8.86246 8.44224 9.62694 7.94709 9.49329 7.24672C9.29818 7.29291 9.12709 7.34165 8.95334 7.38269Z" fill="#3A3B7B"/>
<path d="M12.5458 8.82962C11.6771 9.34273 10.6881 8.82962 10.4716 7.75213C10.3139 6.98249 10.6132 5.90498 11.6611 5.4945C11.884 5.40905 12.1258 5.37905 12.364 5.40728C12.6503 5.45757 12.9129 5.59282 13.1148 5.79396C13.3166 5.9951 13.4477 6.25197 13.4894 6.5284C13.6658 7.44426 13.2648 8.42171 12.5458 8.82962ZM12.8479 7.10305C12.8476 6.88994 12.769 6.68371 12.626 6.52069C12.5495 6.41987 12.439 6.34763 12.3132 6.31627C12.1875 6.28493 12.0543 6.29642 11.9364 6.34881C11.4659 6.54378 11.1345 7.25185 11.2547 7.77266C11.2639 7.85439 11.2916 7.93321 11.3358 8.0036C11.3801 8.07399 11.4398 8.13426 11.5108 8.18021C11.5818 8.22614 11.6625 8.25663 11.747 8.26955C11.8316 8.28245 11.9181 8.27747 12.0005 8.25496C12.2492 8.17158 12.4645 8.01577 12.6164 7.80925C12.7683 7.60274 12.8492 7.35584 12.8479 7.10305Z" fill="#3A3B7B"/>
<path d="M14.368 9.0452C14.3549 9.13909 14.3035 9.22414 14.225 9.28164C14.1465 9.33912 14.0475 9.36436 13.9497 9.35177C13.8518 9.33918 13.7632 9.2898 13.7033 9.2145C13.6434 9.13922 13.6171 9.04416 13.6303 8.95027C13.6434 8.85637 13.6948 8.77133 13.7733 8.71383C13.8517 8.65633 13.9507 8.63111 14.0486 8.6437C14.1464 8.65628 14.235 8.70564 14.2949 8.78094C14.3548 8.85624 14.3811 8.9513 14.368 9.0452ZM14.1354 5.58436C14.1863 5.50984 14.2609 5.45309 14.3481 5.42258C14.4352 5.39206 14.5304 5.38942 14.6193 5.41504C14.7096 5.43674 14.7894 5.48757 14.8454 5.55903C14.9014 5.63048 14.93 5.71822 14.9267 5.80756C14.9149 5.95084 14.8925 6.09316 14.8598 6.23342C14.7716 6.70804 14.6861 7.18264 14.5925 7.65214C14.5498 7.83942 14.4936 8.019 14.4321 8.20884C14.4108 8.26818 14.375 8.32181 14.3279 8.36534C14.2986 8.39808 14.2612 8.42319 14.2191 8.43835C14.177 8.45353 14.1316 8.45826 14.0871 8.45212C14.0426 8.44598 14.0004 8.42917 13.9645 8.40325C13.9286 8.37731 13.9 8.34309 13.8815 8.30377C13.8497 8.23322 13.8325 8.15741 13.8307 8.08057C13.8307 7.76245 13.8307 7.44177 13.8521 7.12107C13.8885 6.66342 13.9599 6.20895 14.0659 5.76138C14.0784 5.70141 14.1019 5.64407 14.1354 5.59206V5.58436Z" fill="#3A3B7B"/>
<path fill-rule="evenodd" clip-rule="evenodd" d="M2.14503 11.1067C2.11347 11.1744 2.10482 11.2497 2.12024 11.3223C2.1305 11.4179 2.15304 11.512 2.18733 11.6023C2.23015 11.713 2.27807 11.8224 2.33715 11.9572C2.35074 11.9883 2.36494 12.0207 2.3798 12.0547C2.45947 12.2374 2.55944 12.4709 2.69279 12.8088C2.73053 12.9048 2.76404 13.0015 2.79779 13.099C2.81143 13.1383 2.82511 13.1778 2.83912 13.2174C2.88932 13.3582 2.97571 13.4846 3.09021 13.5848C3.13883 13.6399 3.20333 13.68 3.27564 13.7001C3.34937 13.7206 3.42779 13.7193 3.50073 13.6964C3.57367 13.6735 3.63774 13.63 3.68461 13.5717C3.73057 13.5145 3.75789 13.4456 3.76321 13.3736C3.79302 13.2333 3.78284 13.0879 3.73371 12.9527C3.65572 12.7282 3.56688 12.5033 3.46444 12.2834L3.46397 12.2824C3.29544 11.9384 3.12413 11.5967 2.94471 11.2549L2.94337 11.2525C2.89085 11.1634 2.82259 11.0838 2.74167 11.0172C2.68913 10.9578 2.61666 10.9177 2.53664 10.9039C2.4549 10.8898 2.37061 10.904 2.2988 10.944C2.23087 10.9812 2.17702 11.0382 2.14503 11.1067Z" fill="#3A3B7B"/>
<path fill-rule="evenodd" clip-rule="evenodd" d="M4.71892 10.2596C4.45467 10.1939 4.1787 10.1843 3.91024 10.2315C3.7023 10.2512 3.49779 10.2972 3.35578 10.3884C3.28355 10.4348 3.22516 10.4944 3.19268 10.5701C3.16001 10.6463 3.15585 10.7334 3.18261 10.8304C3.23148 11.0082 3.29494 11.181 3.35818 11.3533L3.36842 11.3812L3.36867 11.3818C3.55908 11.8823 3.7513 12.3811 3.94527 12.8781C3.96789 12.9565 3.99988 13.032 4.04059 13.1033L4.04135 13.1046C4.09513 13.1932 4.16411 13.2724 4.24537 13.3389C4.28601 13.3755 4.33627 13.4008 4.39076 13.4121C4.44579 13.4235 4.50302 13.4202 4.55622 13.4025C4.60944 13.3848 4.65656 13.3535 4.69247 13.3118C4.7278 13.2709 4.75093 13.2215 4.75943 13.169C4.79449 13.0264 4.78326 12.8769 4.72721 12.7405C4.70973 12.6947 4.69601 12.6478 4.68155 12.5984C4.67673 12.5819 4.67185 12.5652 4.66669 12.5481C5.1107 12.3816 5.58313 12.1576 5.74926 11.6365C5.81432 11.4564 5.81974 11.2615 5.76477 11.0783C5.70976 10.8949 5.5969 10.7324 5.44173 10.6131C5.23054 10.4461 4.98384 10.3254 4.71892 10.2596ZM3.98645 10.8987C3.9952 10.8963 4.00401 10.894 4.01284 10.8919C4.3019 10.8483 4.59765 10.9064 4.84562 11.0555C4.9549 11.1285 4.99967 11.2095 5.00736 11.2875C5.01529 11.3678 4.98487 11.4548 4.92376 11.5385C4.8083 11.6965 4.59758 11.8229 4.40724 11.8465C4.26848 11.5398 4.12757 11.2207 3.98645 10.8987Z" fill="#3A3B7B"/>
<path d="M6.48057 9.69812C6.79526 9.55863 7.18506 9.53454 7.49009 9.63262C7.56691 9.65409 7.63355 9.70054 7.67863 9.76403C7.72342 9.82712 7.74409 9.90314 7.73719 9.97915C7.73674 10.0285 7.72412 10.077 7.70038 10.1208C7.67621 10.1654 7.64122 10.2037 7.59836 10.2326C7.5555 10.2614 7.50602 10.28 7.45413 10.2866C7.40221 10.2933 7.34942 10.2878 7.30017 10.2707L7.29643 10.2694L7.29291 10.2676C7.26771 10.255 7.24095 10.2455 7.21326 10.2392L7.21151 10.2389C6.99694 10.1842 6.79454 10.2748 6.72061 10.3862C6.68535 10.4393 6.68098 10.4929 6.71034 10.5416C6.74179 10.5939 6.81893 10.6525 6.97502 10.6942C7.01794 10.7055 7.06195 10.7164 7.10658 10.7275C7.23001 10.7582 7.35828 10.7901 7.48231 10.8342L7.48278 10.8344C8.05499 11.0434 8.26806 11.4761 8.19512 11.8832C8.12296 12.2857 7.77269 12.6521 7.24597 12.7385C7.0543 12.7792 6.85484 12.7713 6.66732 12.7154C6.47934 12.6594 6.30989 12.5571 6.17581 12.4188L6.17232 12.4151C6.12999 12.363 6.10153 12.3018 6.0889 12.2368C6.07729 12.1782 6.08341 12.1176 6.1065 12.0621C6.12946 12.007 6.16828 11.9593 6.21838 11.9246C6.27131 11.8852 6.33511 11.8616 6.40189 11.8566C6.46844 11.8517 6.53504 11.8656 6.59348 11.8966C6.65186 11.9236 6.70615 11.9582 6.75488 11.9992L6.7558 12C6.84202 12.0756 6.94632 12.0954 7.04635 12.0771C7.14783 12.0586 7.24326 12.0009 7.30463 11.9245C7.36561 11.8485 7.39009 11.7582 7.36103 11.6706C7.3318 11.5823 7.24391 11.4834 7.05079 11.4008C7.0003 11.3802 6.94796 11.3636 6.89351 11.3475C6.87883 11.3431 6.8639 11.3388 6.84879 11.3344C6.80853 11.3226 6.7671 11.3106 6.72648 11.2972C6.69851 11.2881 6.67075 11.2794 6.64327 11.2708C6.56815 11.2473 6.49492 11.2244 6.42444 11.1937C6.27104 11.1436 6.13851 11.0474 6.04658 10.9192C5.95427 10.7906 5.90782 10.6368 5.91414 10.4807C5.91464 10.1004 6.1642 9.83838 6.48057 9.69812Z" fill="#3A3B7B"/>
<path d="M10.4702 9.65752C10.4092 9.62892 10.3417 9.61534 10.2739 9.618C10.206 9.62069 10.1399 9.63952 10.0816 9.67286C10.0236 9.70596 9.97502 9.7523 9.94023 9.80777C9.90833 9.85449 9.88625 9.90673 9.87524 9.96159C9.86423 10.0164 9.8645 10.0727 9.876 10.1274C9.88737 10.1977 9.89997 10.266 9.91241 10.3334C9.93301 10.445 9.95305 10.554 9.96627 10.6652L9.96677 10.668C9.99687 10.8424 10.0126 11.0187 10.014 11.1954L10.0142 11.1979C10.0245 11.3887 9.95673 11.5758 9.82548 11.7195L9.82339 11.7221C9.78069 11.7746 9.72359 11.8147 9.65847 11.8379C9.59337 11.861 9.52285 11.8663 9.45477 11.8532C9.38669 11.8401 9.32377 11.8091 9.27301 11.7636C9.22226 11.7181 9.18566 11.6598 9.16739 11.5955C9.12838 11.4601 9.10581 11.3207 9.10007 11.1803L9.16669 10.1622C9.16768 10.149 9.1688 10.1353 9.16994 10.1215C9.17248 10.0906 9.17508 10.0591 9.17615 10.0298C9.17772 9.98654 9.17638 9.94209 9.16588 9.90002C9.15515 9.85702 9.13473 9.81611 9.0985 9.78128C9.06263 9.7468 9.01421 9.72136 8.95328 9.70404C8.84311 9.67343 8.74994 9.6744 8.67231 9.70602C8.59464 9.73764 8.54142 9.79635 8.50376 9.86417C8.46639 9.93142 8.44238 10.011 8.42423 10.0908C8.41075 10.1499 8.39993 10.2121 8.38964 10.2712C8.38607 10.2916 8.3826 10.3116 8.37908 10.331L8.37899 10.3316C8.32393 10.6558 8.30755 10.9851 8.33014 11.3129C8.33436 11.4901 8.37285 11.6649 8.44368 11.8286C8.5236 12.0397 8.66834 12.2227 8.85882 12.3533C9.0497 12.4842 9.27747 12.5563 9.512 12.5601C9.74652 12.5639 9.97672 12.4992 10.1721 12.3746C10.3672 12.2502 10.5184 12.072 10.6056 11.8634C10.7277 11.5977 10.7851 11.3087 10.7733 11.0185C10.7661 10.8066 10.7541 10.5931 10.7421 10.3807C10.7362 10.2765 10.7304 10.1726 10.7251 10.0692C10.7225 9.96561 10.6869 9.86525 10.6231 9.78161C10.5836 9.72873 10.5311 9.68609 10.4702 9.65752Z" fill="#3A3B7B"/>
<path d="M12.63 11.2539C12.6238 11.2614 12.6173 11.2693 12.6105 11.2774C12.5609 11.0026 12.5149 10.7279 12.4688 10.4527C12.4523 10.354 12.4357 10.2549 12.419 10.156L12.4171 10.145L12.411 10.1355C12.3995 10.1176 12.3983 10.1 12.3983 10.0625V10.0581L12.3976 10.0539C12.3852 9.97642 12.3487 9.90436 12.2929 9.8471C12.2373 9.79 12.1651 9.75026 12.0857 9.73301C12.0064 9.71424 11.9231 9.71837 11.8462 9.74491C11.7696 9.77138 11.7027 9.81896 11.6541 9.88167C11.6137 9.9298 11.5805 9.98318 11.5557 10.0402C11.4993 10.1631 11.4424 10.2863 11.3854 10.4098L11.3844 10.4119C11.242 10.7203 11.0987 11.0307 10.9595 11.3436L10.9591 11.3446C10.8737 11.5474 10.8032 11.7612 10.7329 11.9743C10.7188 12.0168 10.7048 12.0593 10.6907 12.1017C10.6653 12.169 10.6542 12.2404 10.658 12.3118C10.6534 12.3757 10.6693 12.4395 10.7037 12.4945C10.7388 12.5506 10.7913 12.5948 10.8539 12.6207C10.9202 12.6486 10.9943 12.6546 11.0645 12.6376C11.1346 12.6206 11.1968 12.5818 11.2414 12.5272C11.2984 12.46 11.3473 12.3867 11.3873 12.309C11.5052 12.0776 11.6178 11.8433 11.73 11.61C11.7734 11.5198 11.8156 11.439 11.8635 11.351C11.8668 11.3619 11.8702 11.3725 11.8737 11.3831C11.9239 11.5955 12.0088 11.799 12.1251 11.9861C12.1472 12.0257 12.1778 12.0604 12.215 12.0876C12.2527 12.1152 12.2962 12.1346 12.3424 12.1444C12.3886 12.1543 12.4366 12.1543 12.4828 12.1446C12.529 12.1348 12.5726 12.1154 12.6103 12.088L12.6849 12.0344L13.2638 11.5664L13.2295 11.7758C13.1826 12.0636 13.1359 12.349 13.0864 12.6345C13.054 12.761 13.054 12.8932 13.0865 13.0196C13.1006 13.0908 13.1365 13.1564 13.1896 13.2079C13.2431 13.2599 13.3116 13.2951 13.3863 13.3092C13.461 13.3233 13.5384 13.3155 13.6084 13.2868C13.6774 13.2586 13.7361 13.2114 13.7771 13.1512C13.8726 13.0375 13.932 12.8999 13.9483 12.7548C13.9729 12.5498 14.0006 12.342 14.0284 12.1343C14.0604 11.8948 14.0924 11.6555 14.1194 11.4207L14.1195 11.42C14.1455 11.163 14.158 10.9049 14.1572 10.6467C14.1629 10.5651 14.1417 10.4838 14.0966 10.4144C14.0513 10.3447 13.9843 10.2905 13.9051 10.2594C13.8227 10.2235 13.7304 10.2139 13.6419 10.2321C13.554 10.2501 13.4744 10.2946 13.4147 10.359C13.3079 10.4538 13.2077 10.5552 13.1148 10.6626L13.1142 10.6634C13.0128 10.7847 12.912 10.9084 12.8119 11.0313C12.7511 11.106 12.6904 11.1805 12.63 11.2539Z" fill="#3A3B7B"/>
</g>
<defs>
<clipPath id="clip0_1_1870">
<rect width="15.6917" height="9.68213" fill="white" transform="translate(0.705078 4.03247)"/>
</clipPath>
</defs>
</svg>
