<svg width="17" height="17" viewBox="0 0 17 17" fill="none" xmlns="http://www.w3.org/2000/svg">
<g clip-path="url(#clip0_1_1863)">
<path fill-rule="evenodd" clip-rule="evenodd" d="M5.17767 5.4062L1.84375 8.7066C2.51059 9.36676 3.27236 9.92311 4.1029 10.3584C4.33247 10.9612 4.69231 11.5265 5.18242 12.0117C7.02633 13.8371 10.0159 13.8371 11.8597 12.0117C12.3499 11.5265 12.7097 10.9612 12.9393 10.3583C13.7698 9.92311 14.5316 9.36676 15.1984 8.7066L11.8672 5.40889C11.8647 5.40642 11.8623 5.40395 11.8597 5.40149C10.0159 3.57613 7.02633 3.57613 5.18242 5.40149C5.18084 5.40306 5.17925 5.40463 5.17767 5.4062ZM11.5407 10.9538C10.5692 11.2784 9.54929 11.4446 8.52108 11.4446C7.49287 11.4446 6.47301 11.2784 5.50146 10.9538C5.60673 11.0921 5.72295 11.2248 5.85015 11.3507C7.32527 12.811 9.71689 12.811 11.192 11.3507C11.3192 11.2248 11.4355 11.0921 11.5407 10.9538ZM5.91862 5.99641C6.16912 6.16024 6.43548 6.30043 6.7142 6.41473C7.28704 6.64962 7.90102 6.77052 8.52108 6.77052C9.14114 6.77052 9.75512 6.64962 10.328 6.41473C10.6067 6.30043 10.873 6.16023 11.1236 5.9964C9.66684 4.62426 7.37532 4.62426 5.91862 5.99641Z" fill="#3B4158"/>
</g>
<defs>
<clipPath id="clip0_1_1863">
<rect width="13.3547" height="9.34826" fill="white" transform="translate(1.84375 4.03247)"/>
</clipPath>
</defs>
</svg>
