<svg width="18" height="17" viewBox="0 0 18 17" fill="none" xmlns="http://www.w3.org/2000/svg">
<g clip-path="url(#clip0_1_1890)">
<path d="M4.68688 5.36792C4.00888 5.36792 3.35867 5.63725 2.87926 6.11666L1.31466 7.68126C0.835248 8.16067 0.565918 8.81089 0.565918 9.48888C0.565918 10.9007 1.71044 12.0453 3.12229 12.0453C3.80028 12.0453 4.4505 11.7759 4.92991 11.2965L6.01215 10.2143C6.01215 10.2142 6.01217 10.2143 6.01215 10.2143L9.16543 7.06098C9.3944 6.83202 9.70494 6.70339 10.0287 6.70339C10.5709 6.70339 11.0305 7.05671 11.1898 7.54564L12.185 6.55047C11.731 5.83942 10.9349 5.36792 10.0287 5.36792C9.35075 5.36792 8.70053 5.63725 8.22112 6.11666L3.9856 10.3522C3.75664 10.5812 3.4461 10.7098 3.12229 10.7098C2.448 10.7098 1.90138 10.1632 1.90138 9.48888C1.90138 9.16507 2.03001 8.85453 2.25898 8.62557L3.82357 7.06098C4.05253 6.83202 4.36307 6.70339 4.68688 6.70339C5.22901 6.70339 5.68859 7.05672 5.84793 7.54567L6.84312 6.55049C6.38913 5.83943 5.59308 5.36792 4.68688 5.36792Z" fill="#394149"/>
<path d="M9.32755 10.3522C9.09858 10.5812 8.78804 10.7098 8.46424 10.7098C7.92219 10.7098 7.46264 10.3566 7.30325 9.86771L6.30811 10.8629C6.76212 11.5738 7.55812 12.0453 8.46424 12.0453C9.14223 12.0453 9.79245 11.7759 10.2719 11.2965L14.5074 7.06098C14.7363 6.83202 15.0469 6.70339 15.3707 6.70339C16.045 6.70339 16.5916 7.25 16.5916 7.92429C16.5916 8.2481 16.463 8.55864 16.234 8.7876L14.6694 10.3522C14.4404 10.5812 14.1299 10.7098 13.8061 10.7098C13.264 10.7098 12.8044 10.3565 12.6451 9.8676L11.6499 10.8628C12.1039 11.5738 12.8999 12.0453 13.8061 12.0453C14.4841 12.0453 15.1343 11.7759 15.6137 11.2965L17.1783 9.73191C17.6577 9.2525 17.9271 8.60229 17.9271 7.92429C17.9271 6.51245 16.7825 5.36792 15.3707 5.36792C14.6927 5.36792 14.0425 5.63725 13.5631 6.11666L9.32755 10.3522Z" fill="#394149"/>
</g>
<defs>
<clipPath id="clip0_1_1890">
<rect width="17.3611" height="6.67733" fill="white" transform="translate(0.565918 5.36792)"/>
</clipPath>
</defs>
</svg>
