<svg width="20" height="17" viewBox="0 0 20 17" fill="none" xmlns="http://www.w3.org/2000/svg">
<g clip-path="url(#clip0_1_1894)">
<path d="M19.0248 7.26085C19.0267 7.24693 19.0267 7.23285 19.0248 7.21893C19.0266 7.20759 19.0266 7.19602 19.0248 7.18465L18.8888 6.20554C18.8692 6.0884 18.8167 5.97891 18.7372 5.88933L18.7139 5.86266L18.6712 5.82075L16.3162 3.83205L16.3823 3.89682C16.3282 3.83342 16.2604 3.78271 16.1837 3.74843C16.1071 3.71414 16.0235 3.69715 15.9393 3.69871H15.2242C15.1079 3.69645 14.9943 3.73269 14.9017 3.80157C14.8044 3.73311 14.6872 3.69705 14.5675 3.69871H13.8524C13.7587 3.69722 13.6661 3.72003 13.5843 3.76486C13.5024 3.80968 13.434 3.87492 13.3861 3.95396C13.3123 4.06686 13.2845 4.20288 13.3084 4.33494L13.3978 4.95212C13.3386 4.91921 13.2715 4.90214 13.2035 4.9026H9.74098C9.61675 4.90336 9.49538 4.93906 9.39122 5.00546C9.29051 5.06726 9.20966 5.15576 9.15806 5.26071L8.88992 5.03594C8.78438 4.94021 8.64508 4.88832 8.50132 4.89117H3.06859C2.94392 4.89339 2.82202 4.92754 2.71497 4.99022C2.56851 5.07426 2.46118 5.21091 2.41574 5.3712L0.690322 11.0287C0.658084 11.1219 0.654912 11.2225 0.681214 11.3175C0.707517 11.4125 0.762101 11.4976 0.837995 11.5621C0.85777 11.5785 0.878535 11.5938 0.900173 11.6078C0.900173 11.6078 0.865193 11.5849 0.845763 11.5659L3.20073 13.5584C3.30035 13.6483 3.4306 13.6986 3.566 13.6994H9.04149C9.16653 13.6962 9.28852 13.6607 9.39512 13.5965C9.45541 13.5642 9.50935 13.5216 9.55444 13.4708L9.57388 13.4441L9.60497 13.406L9.62828 13.3641L9.88477 13.5813C9.98296 13.6676 10.1104 13.7151 10.2423 13.7146H15.7294C15.8543 13.7105 15.9761 13.6751 16.083 13.6117C16.142 13.5775 16.1956 13.5351 16.2424 13.486L16.2618 13.4593L16.2929 13.4213C16.3094 13.3971 16.3237 13.3717 16.3356 13.345C16.3483 13.322 16.3587 13.2977 16.3667 13.2727L17.9406 8.10662V8.0609C17.9425 8.04317 17.9425 8.02529 17.9406 8.00756V7.97329C17.9425 7.96192 17.9425 7.95035 17.9406 7.93898C17.9423 7.91489 17.9423 7.8907 17.9406 7.86659H18.4458C18.4897 7.87055 18.5339 7.87055 18.5779 7.86659H18.6129C18.6413 7.85828 18.6687 7.84676 18.6945 7.83231H18.7334L18.8033 7.77898L18.8344 7.75611L18.8888 7.68753V7.66469L18.9276 7.59991C18.9255 7.58732 18.9255 7.57442 18.9276 7.56183C18.9256 7.55564 18.9256 7.54896 18.9276 7.54277C18.9359 7.52044 18.9424 7.4975 18.9471 7.47419C18.9453 7.46668 18.9453 7.45884 18.9471 7.45133C18.9452 7.43998 18.9452 7.42839 18.9471 7.41705C18.9471 7.41705 19.0248 7.26846 19.0248 7.26085Z" fill="black"/>
<path d="M8.66061 5.32548C8.68124 5.34377 8.69565 5.36782 8.7019 5.39438C8.70817 5.42095 8.70595 5.44876 8.6956 5.47406L6.97407 11.1278C6.9524 11.1895 6.90804 11.2411 6.84972 11.2725C6.80226 11.3037 6.74732 11.322 6.69037 11.3259H1.2188C1.17207 11.3237 1.1278 11.3047 1.09444 11.2725C1.0746 11.2545 1.06067 11.2312 1.05444 11.2054C1.04821 11.1796 1.04997 11.1526 1.05947 11.1278L2.78488 5.47406C2.80477 5.41155 2.84772 5.35857 2.90535 5.32548C2.9536 5.29659 3.00827 5.27959 3.06468 5.27595H8.53625C8.58262 5.27639 8.62707 5.2941 8.66061 5.32548ZM5.80435 9.98864L6.83416 6.61318H3.95071L2.92478 9.98864H5.80435ZM13.8835 5.38262C13.9022 5.40389 13.9255 5.42076 13.9517 5.43197C13.978 5.44318 14.0064 5.44845 14.0351 5.44739H14.7462C14.7733 5.44765 14.8 5.44114 14.8238 5.42847C14.8476 5.41581 14.8677 5.3974 14.8822 5.375C14.8948 5.3575 14.9038 5.3377 14.9084 5.31675C14.9131 5.29581 14.9134 5.27416 14.9094 5.25309L14.7695 4.24731C14.7562 4.20076 14.7323 4.15778 14.6996 4.12159C14.6809 4.10032 14.6576 4.08345 14.6313 4.07224C14.6051 4.06103 14.5766 4.05576 14.548 4.05682H13.8369C13.8098 4.05656 13.7831 4.06307 13.7593 4.07574C13.7355 4.08841 13.7154 4.10681 13.7009 4.12921C13.6736 4.18255 13.662 4.21683 13.6736 4.24731L13.8174 5.25309C13.8248 5.30207 13.848 5.34745 13.8835 5.38262ZM16.1413 4.23969C16.128 4.19314 16.104 4.15016 16.0713 4.11397C16.0535 4.09278 16.0308 4.07592 16.0052 4.06468C15.9796 4.05345 15.9517 4.04815 15.9237 4.0492H15.2086C15.182 4.04846 15.1557 4.05479 15.1324 4.06754C15.1091 4.08028 15.0898 4.09896 15.0765 4.12159C15.0507 4.15539 15.0395 4.19784 15.0454 4.23969L15.1892 5.24547C15.1982 5.29393 15.2211 5.33886 15.2553 5.375C15.2743 5.39586 15.2977 5.41244 15.3238 5.42362C15.35 5.4348 15.3783 5.4403 15.4068 5.43977H16.1219C16.1484 5.44011 16.1746 5.43361 16.1978 5.4209C16.221 5.4082 16.2404 5.38975 16.254 5.36739C16.2675 5.35034 16.277 5.33054 16.2817 5.30945C16.2864 5.28835 16.2862 5.26649 16.2812 5.24547L16.1413 4.23969ZM13.2578 5.7636L13.1879 5.26833H9.74094C9.68682 5.27125 9.63447 5.28836 9.58938 5.31786C9.56076 5.33316 9.53584 5.35437 9.51638 5.38002C9.49695 5.40567 9.48341 5.43515 9.4767 5.46644L9.18912 6.41126C9.17764 6.43487 9.17372 6.46136 9.17787 6.4872C9.18206 6.51304 9.19409 6.53703 9.21243 6.55604C9.2452 6.58623 9.28797 6.60384 9.33291 6.60557H13.5221L12.4923 9.98103H8.31475C8.26089 9.98223 8.20843 9.99806 8.16321 10.0267C8.10825 10.061 8.06811 10.1139 8.05051 10.1753L7.75905 11.1202C7.74954 11.1444 7.74704 11.1707 7.75183 11.1963C7.75665 11.2218 7.76854 11.2456 7.78624 11.2649C7.81799 11.2971 7.86109 11.3162 7.90672 11.3182H13.3938C13.4506 11.3135 13.5053 11.2952 13.5532 11.2649C13.6105 11.2333 13.6536 11.1816 13.6736 11.1202L15.2514 5.95409H13.4755C13.4473 5.95463 13.4193 5.94951 13.3932 5.93902C13.3672 5.92854 13.3436 5.91291 13.3239 5.89313C13.2918 5.85858 13.269 5.81666 13.2578 5.77122V5.7636Z" fill="white"/>
</g>
<defs>
<clipPath id="clip0_1_1894">
<rect width="18.3627" height="10.016" fill="white" transform="translate(0.663574 3.69861)"/>
</clipPath>
</defs>
</svg>
