<svg width="23" height="20" viewBox="0 0 23 20" fill="none" xmlns="http://www.w3.org/2000/svg">
<path d="M22.2344 13.1845C22.2344 16.5035 19.5438 19.1941 16.2248 19.1941L7.21038 19.1941C6.28843 19.1941 5.54105 18.4467 5.54105 17.5248L5.54105 6.17329C5.54105 4.3294 7.03582 2.83463 8.87971 2.83463L20.565 2.83463C21.487 2.83463 22.2344 3.58202 22.2344 4.50396L22.2344 13.1845Z" fill="#E8F5E9"/>
<path d="M9.51991 6.84467C9.41574 6.84467 9.33105 6.76012 9.33105 6.65581V6.33486C9.33105 6.23068 9.41561 6.146 9.51991 6.146C9.62409 6.146 9.70877 6.23055 9.70877 6.33486V6.65581C9.70877 6.76012 9.62409 6.84467 9.51991 6.84467Z" fill="#103E13"/>
<path d="M8.72597 6.84467C8.6218 6.84467 8.53711 6.76012 8.53711 6.65581V6.33486C8.53711 6.23068 8.62166 6.146 8.72597 6.146C8.83014 6.146 8.91483 6.23055 8.91483 6.33486V6.65581C8.9147 6.76012 8.83028 6.84467 8.72597 6.84467Z" fill="#103E13"/>
<path d="M7.93202 6.84467C7.82785 6.84467 7.74316 6.76012 7.74316 6.65581V6.33486C7.74316 6.23068 7.82772 6.146 7.93202 6.146C8.0362 6.146 8.12088 6.23055 8.12088 6.33486V6.65581C8.12088 6.76012 8.03633 6.84467 7.93202 6.84467Z" fill="#103E13"/>
<path d="M9.51991 8.15716C9.41574 8.15716 9.33105 8.07261 9.33105 7.9683V7.64748C9.33105 7.5433 9.41561 7.45862 9.51991 7.45862C9.62409 7.45862 9.70877 7.54317 9.70877 7.64748V7.9683C9.70877 8.07261 9.62409 8.15716 9.51991 8.15716Z" fill="#103E13"/>
<path d="M8.72597 8.15716C8.6218 8.15716 8.53711 8.07261 8.53711 7.9683V7.64748C8.53711 7.5433 8.62166 7.45862 8.72597 7.45862C8.83014 7.45862 8.91483 7.54317 8.91483 7.64748V7.9683C8.9147 8.07261 8.83028 8.15716 8.72597 8.15716Z" fill="#103E13"/>
<path d="M7.93202 8.15716C7.82785 8.15716 7.74316 8.07261 7.74316 7.9683V7.64748C7.74316 7.5433 7.82772 7.45862 7.93202 7.45862C8.0362 7.45862 8.12088 7.54317 8.12088 7.64748V7.9683C8.12088 8.07261 8.03633 8.15716 7.93202 8.15716Z" fill="#103E13"/>
<path d="M9.51991 9.46967C9.41574 9.46967 9.33105 9.38512 9.33105 9.28081V8.95986C9.33105 8.85568 9.41561 8.771 9.51991 8.771C9.62409 8.771 9.70877 8.85555 9.70877 8.95986V9.28081C9.70877 9.38512 9.62409 9.46967 9.51991 9.46967Z" fill="#103E13"/>
<path d="M8.72597 9.46967C8.6218 9.46967 8.53711 9.38512 8.53711 9.28081V8.95986C8.53711 8.85568 8.62166 8.771 8.72597 8.771C8.83014 8.771 8.91483 8.85555 8.91483 8.95986V9.28081C8.9147 9.38512 8.83028 9.46967 8.72597 9.46967Z" fill="#103E13"/>
<path d="M7.93202 9.46967C7.82785 9.46967 7.74316 9.38512 7.74316 9.28081V8.95986C7.74316 8.85568 7.82772 8.771 7.93202 8.771C8.0362 8.771 8.12088 8.85555 8.12088 8.95986V9.28081C8.12088 9.38512 8.03633 9.46967 7.93202 9.46967Z" fill="#103E13"/>
<path d="M9.51991 10.7819C9.41574 10.7819 9.33105 10.6974 9.33105 10.5931V10.2721C9.33105 10.1679 9.41561 10.0833 9.51991 10.0833C9.62409 10.0833 9.70877 10.1678 9.70877 10.2721V10.5931C9.70877 10.6974 9.62409 10.7819 9.51991 10.7819Z" fill="#103E13"/>
<path d="M8.72597 10.7819C8.6218 10.7819 8.53711 10.6974 8.53711 10.5931V10.2721C8.53711 10.1679 8.62166 10.0833 8.72597 10.0833C8.83014 10.0833 8.91483 10.1678 8.91483 10.2721V10.5931C8.9147 10.6974 8.83028 10.7819 8.72597 10.7819Z" fill="#103E13"/>
<path d="M7.93202 10.7819C7.82785 10.7819 7.74316 10.6974 7.74316 10.5931V10.2721C7.74316 10.1679 7.82772 10.0833 7.93202 10.0833C8.0362 10.0833 8.12088 10.1678 8.12088 10.2721V10.5931C8.12088 10.6974 8.03633 10.7819 7.93202 10.7819Z" fill="#103E13"/>
<path d="M9.51991 12.0944C9.41574 12.0944 9.33105 12.0099 9.33105 11.9056V11.5847C9.33105 11.4806 9.41561 11.3959 9.51991 11.3959C9.62409 11.3959 9.70877 11.4804 9.70877 11.5847V11.9056C9.70877 12.0097 9.62409 12.0944 9.51991 12.0944Z" fill="#103E13"/>
<path d="M8.72597 12.0944C8.6218 12.0944 8.53711 12.0099 8.53711 11.9056V11.5847C8.53711 11.4806 8.62166 11.3959 8.72597 11.3959C8.83014 11.3959 8.91483 11.4804 8.91483 11.5847V11.9056C8.9147 12.0097 8.83028 12.0944 8.72597 12.0944Z" fill="#103E13"/>
<path d="M7.93202 12.0944C7.82785 12.0944 7.74316 12.0099 7.74316 11.9056L7.7433 11.5847C7.7433 11.4806 7.82785 11.3959 7.93216 11.3959C8.03633 11.3959 8.12102 11.4804 8.12102 11.5847V11.9056C8.12088 12.0097 8.03633 12.0944 7.93202 12.0944Z" fill="#103E13"/>
<path d="M2.53678 13.4005C2.53678 13.5047 2.62133 13.5894 2.72564 13.5894H14.2266C14.3308 13.5894 14.4155 13.5048 14.4155 13.4005C14.4155 13.2963 14.3309 13.2116 14.2266 13.2116H13.8775V7.78922C13.8775 7.68505 13.7929 7.60036 13.6886 7.60036L10.6051 7.60049V3.69121C10.6051 3.6251 10.5706 3.56399 10.5142 3.52974C10.458 3.49537 10.3877 3.49326 10.3292 3.52368L6.82349 5.34893C6.76093 5.38146 6.72195 5.44599 6.72195 5.51645V8.93113H3.32918C3.22501 8.93113 3.14032 9.01569 3.14032 9.11999V13.2117H2.72522C2.62104 13.2115 2.53662 13.2961 2.53662 13.4004L2.53678 13.4005ZM10.6052 10.4608H13.4999V13.2118L10.6052 13.2117V10.4608ZM10.6052 9.14844H13.4999V10.0833L10.6052 10.0831V9.14844ZM10.6052 7.97801H13.4999V8.771H10.6052V7.97801ZM7.09947 5.63113L10.2273 4.00251V13.2115H7.09947V5.63113ZM4.45164 11.7032C4.45164 11.3113 4.76219 10.9923 5.14398 10.9923C5.52578 10.9923 5.83646 11.3112 5.83646 11.7032V13.2117H4.45164V11.7032ZM3.51803 9.30879H6.72189V13.2117H6.21417V11.7032C6.21417 11.103 5.73427 10.6147 5.14398 10.6147C4.55396 10.6147 4.07406 11.1029 4.07406 11.7032V13.2117H3.51803V9.30879Z" fill="#103E13"/>
</svg>
