<svg width="7" height="7" viewBox="0 0 7 7" fill="none" xmlns="http://www.w3.org/2000/svg">
<g clip-path="url(#clip0_122_638)">
<path fill-rule="evenodd" clip-rule="evenodd" d="M6.34952 1.10777C6.41754 1.17579 6.44058 1.27676 6.4088 1.36755L4.656 6.37555C4.62209 6.47245 4.53245 6.53884 4.42987 6.54302C4.32729 6.54721 4.23254 6.48835 4.19084 6.39453L3.22836 4.22893L1.06277 3.26645C0.968947 3.22475 0.910087 3.13001 0.914272 3.02742C0.918457 2.92484 0.984839 2.8352 1.08174 2.80129L6.08974 1.04849C6.18053 1.01671 6.2815 1.03975 6.34952 1.10777ZM3.71673 4.09468L4.39197 5.61398L5.57364 2.23777L3.71673 4.09468ZM5.21952 1.88365L1.84332 3.06533L3.36261 3.74057L5.21952 1.88365Z" fill="white"/>
</g>
<defs>
<clipPath id="clip0_122_638">
<rect width="6.0096" height="6.0096" fill="white" transform="translate(0.664062 0.784058)"/>
</clipPath>
</defs>
</svg>
