<svg width="23" height="20" viewBox="0 0 23 20" fill="none" xmlns="http://www.w3.org/2000/svg">
<path d="M22.6279 13.1845C22.6279 16.5035 19.9373 19.1941 16.6183 19.1941L7.60394 19.1941C6.68199 19.1941 5.9346 18.4467 5.9346 17.5248L5.9346 6.17329C5.9346 4.3294 7.42938 2.83463 9.27327 2.83463L20.9586 2.83463C21.8805 2.83463 22.6279 3.58202 22.6279 4.50396L22.6279 13.1845Z" fill="#E8F5E9"/>
<path d="M10.3792 8.3917C10.2988 8.3917 10.2242 8.36959 10.1579 8.33404V8.33499C10.1579 8.46147 10.1087 8.58025 10.0195 8.66921C9.93029 8.75841 9.8116 8.80757 9.68527 8.80757C9.6037 8.80757 9.52811 8.78492 9.46109 8.74842C9.45432 8.86413 9.40807 8.97228 9.32556 9.05488C9.23636 9.14408 9.11767 9.19324 8.99125 9.19324C8.74009 9.19324 8.53613 8.99581 8.52143 8.74834C8.44371 8.79034 8.35585 8.81237 8.26523 8.80655C8.01815 8.79034 7.82466 8.57687 7.82466 8.32043V6.19482L7.58262 6.61414C7.49043 6.77453 7.31787 6.87411 7.13207 6.87411C7.04153 6.87411 6.9521 6.85035 6.87289 6.80497C6.77425 6.74778 6.7037 6.65599 6.67436 6.54617C6.64486 6.43629 6.66012 6.32137 6.71715 6.22288C6.71723 6.22288 7.50907 4.85162 7.55738 4.76739C7.56312 4.75473 7.57949 4.718 7.59341 4.68669C7.6067 4.6568 7.61811 4.62612 7.62904 4.59529C7.86784 3.92112 8.45913 3.50234 9.17224 3.50234C10.0983 3.50234 10.8517 4.31928 10.8517 5.32344L10.8517 7.91904C10.8517 8.04537 10.8027 8.16406 10.7135 8.25335C10.6243 8.34255 10.5057 8.39171 10.3792 8.39171L10.3792 8.3917ZM9.17225 3.75345C8.5595 3.75345 8.07111 4.09956 7.86573 4.67927C7.8526 4.71608 7.83891 4.75289 7.82294 4.78876C7.77661 4.89267 7.77661 4.89267 7.76356 4.90761L7.76183 4.90612C7.69717 5.02812 7.50509 5.36076 6.93458 6.34856C6.91114 6.38907 6.90492 6.43611 6.91688 6.4811C6.92899 6.52609 6.95802 6.564 6.99821 6.58721C7.12296 6.65886 7.29382 6.61261 7.36492 6.48873L7.84151 5.66359C7.86999 5.61443 7.92756 5.59028 7.98278 5.60523C8.03768 5.61994 8.07583 5.66973 8.07583 5.72652V8.32051C8.07583 8.4429 8.16818 8.54853 8.28169 8.556C8.34713 8.55946 8.40817 8.53752 8.45403 8.49174C8.49572 8.45005 8.51868 8.39452 8.51868 8.33513V6.63863C8.51868 6.56925 8.57493 6.51301 8.6443 6.51301C8.71368 6.51301 8.76992 6.56917 8.76992 6.63863L8.76984 8.72074C8.76984 8.84282 8.86919 8.94217 8.99126 8.94217C9.05057 8.94217 9.10626 8.9192 9.14803 8.87751C9.18972 8.83574 9.21269 8.78005 9.21269 8.72074V6.63863C9.21269 6.56925 9.26885 6.51301 9.3383 6.51301C9.40768 6.51301 9.46392 6.56917 9.46392 6.63863L9.46384 8.31562V8.33512C9.46384 8.45712 9.56319 8.55646 9.68534 8.55646C9.74457 8.55646 9.80011 8.53342 9.84211 8.49157C9.8838 8.44996 9.90677 8.39443 9.90677 8.33504V6.63854C9.90677 6.56916 9.96293 6.51292 10.0324 6.51292C10.1018 6.51292 10.158 6.56908 10.158 6.63854L10.1578 7.9191C10.1578 8.04126 10.2572 8.1406 10.3792 8.1406C10.4386 8.1406 10.4941 8.11756 10.5358 8.07595C10.5776 8.0341 10.6005 7.97841 10.6005 7.9191L10.6006 5.3235C10.6006 4.45788 9.95986 3.75348 9.17224 3.75348L9.17225 3.75345Z" fill="#103E13"/>
<path d="M5.44353 10.1957L7.26635 9.10216C7.48612 8.97017 7.7689 9.02626 7.90985 9.2299C7.96129 9.30408 7.98757 9.39052 7.99166 9.47855C8.05962 9.44307 8.13356 9.4238 8.20883 9.4238C8.24737 9.4238 8.28607 9.4286 8.3243 9.43812C8.44677 9.46871 8.54997 9.54525 8.61487 9.65348C8.67984 9.76187 8.6988 9.88889 8.6682 10.0112C8.63996 10.1244 8.57113 10.2197 8.47541 10.285C8.54235 10.3245 8.60008 10.3784 8.64114 10.447C8.70611 10.5554 8.72507 10.6824 8.69455 10.8048C8.66395 10.9271 8.58742 11.0303 8.47903 11.0954L8.4784 11.0958C8.54416 11.1352 8.60087 11.1885 8.64146 11.2561C8.70651 11.3645 8.72547 11.4915 8.69487 11.614C8.66419 11.7364 8.58766 11.8396 8.47943 11.9045L6.25374 13.2398C5.83834 13.4889 5.35813 13.5749 4.90175 13.4817C4.44129 13.3876 4.05995 13.1229 3.82807 12.7364C3.46113 12.1248 3.51612 11.4022 3.97131 10.8508C3.99216 10.8256 4.01269 10.8 4.03133 10.7734C4.05107 10.7453 4.07412 10.7122 4.08198 10.7009C4.1291 10.6168 4.89791 9.23158 4.89783 9.23174C4.97547 9.09165 5.12099 9.01235 5.27106 9.01243C5.34107 9.01243 5.4121 9.02966 5.47762 9.066C5.55676 9.1102 5.62322 9.17462 5.66971 9.25226C5.76528 9.41154 5.76866 9.61087 5.67868 9.77218L5.44353 10.1957ZM5.45447 9.38139C5.43008 9.34073 5.39657 9.30832 5.35559 9.28535C5.27088 9.23847 5.16422 9.26899 5.11758 9.35339C4.56745 10.3445 4.37992 10.6822 4.30755 10.8024L4.3092 10.8028C4.30314 10.823 4.30314 10.823 4.23691 10.9176C4.21442 10.9496 4.18995 10.9804 4.16502 11.0106C3.77361 11.4849 3.72816 12.0817 4.04333 12.6072C4.23856 12.9327 4.56123 13.1558 4.95191 13.2356C5.34685 13.3159 5.76311 13.2412 6.1244 13.0244L8.35029 11.6891C8.4011 11.6586 8.43697 11.6103 8.45129 11.5529C8.4656 11.4957 8.45672 11.4361 8.4262 11.3853C8.36343 11.2807 8.22711 11.2463 8.1225 11.3093L7.02443 11.9681C6.96497 12.0038 6.88772 11.9846 6.85209 11.9251C6.81638 11.8656 6.83565 11.7884 6.89512 11.7527L7.99326 11.094L8.3499 10.88C8.40071 10.8495 8.43666 10.8011 8.45098 10.7439C8.46529 10.6866 8.4564 10.627 8.42588 10.5762C8.36304 10.4715 8.22672 10.4375 8.12219 10.5002L6.6674 11.373C6.60778 11.4088 6.53077 11.3894 6.49506 11.3299C6.45935 11.2705 6.4787 11.1933 6.53809 11.1576L8.32355 10.0865C8.37436 10.056 8.41023 10.0077 8.42455 9.95036C8.43886 9.89309 8.42998 9.83355 8.39954 9.78274C8.3691 9.732 8.32072 9.69613 8.26338 9.68182C8.20572 9.6675 8.14641 9.67639 8.09576 9.70675L7.76524 9.90505C7.76516 9.90505 7.76516 9.90513 7.76508 9.90513H7.765L6.3103 10.7778C6.25068 10.8137 6.17359 10.7944 6.13796 10.7348C6.10225 10.6754 6.1216 10.5982 6.18099 10.5625L7.63577 9.68977C7.68658 9.65925 7.72253 9.61087 7.73684 9.55369C7.75257 9.49092 7.74062 9.42673 7.70333 9.37293C7.63868 9.27941 7.5004 9.25455 7.39555 9.31755L5.17127 10.6519C5.12258 10.681 5.0602 10.6739 5.01938 10.6345C4.97848 10.5951 4.96927 10.533 4.9968 10.4834L5.45932 9.65005C5.50573 9.56675 5.50392 9.46386 5.45444 9.38142L5.45447 9.38139Z" fill="#103E13"/>
<path d="M14.1537 12.7363C13.9219 13.1229 13.5406 13.3875 13.0801 13.4816C12.6236 13.5747 12.1436 13.4888 11.7281 13.2397L9.50222 11.9044C9.3939 11.8395 9.31729 11.7363 9.28661 11.6137C9.25617 11.4914 9.27521 11.3643 9.3401 11.2561C9.38061 11.1885 9.4374 11.1351 9.50324 11.0957L9.50261 11.0953C9.3943 11.0304 9.31768 10.9272 9.28717 10.8048C9.25649 10.6824 9.27553 10.5553 9.3405 10.4469C9.38234 10.3773 9.43969 10.3228 9.50513 10.2842C9.41011 10.2189 9.34168 10.1239 9.31352 10.0113C9.28284 9.8888 9.30188 9.76176 9.36685 9.65352C9.43174 9.54521 9.53502 9.46868 9.65742 9.43808C9.69565 9.42849 9.73443 9.42377 9.77281 9.42377C9.84817 9.42384 9.92211 9.44296 9.99006 9.47851C9.99423 9.39049 10.0204 9.30405 10.0719 9.22987C10.2129 9.02639 10.4954 8.97007 10.7155 9.10213L12.5383 10.1955L12.3033 9.77229C12.2132 9.61073 12.2165 9.4114 12.3121 9.25204C12.3586 9.17448 12.4252 9.11006 12.5047 9.06546C12.5701 9.02928 12.6409 9.01214 12.7107 9.01214C12.8607 9.01221 13.0064 9.09134 13.0839 9.23144C13.3542 9.71842 13.8642 10.6368 13.9001 10.7009C13.9077 10.712 13.9308 10.7451 13.9505 10.7732C13.9693 10.7998 13.9896 10.8253 14.0106 10.8506C14.4657 11.4023 14.5206 12.1248 14.1537 12.7363L14.1537 12.7363ZM13.8168 11.0107C13.7918 10.9804 13.7673 10.9495 13.7449 10.9177C13.677 10.8212 13.6752 10.8187 13.6701 10.7935C13.5907 10.662 13.3969 10.3131 12.8641 9.35329C12.8174 9.26905 12.7112 9.2383 12.6266 9.28502C12.585 9.3083 12.5516 9.34079 12.5272 9.38145C12.4778 9.46381 12.4759 9.56669 12.5226 9.65024L12.9849 10.4833C13.0125 10.533 13.0033 10.595 12.9625 10.6345C12.9218 10.674 12.8595 10.681 12.8105 10.6519L10.5863 9.3175C10.4814 9.25465 10.3432 9.27928 10.2784 9.37288C10.2411 9.42668 10.2292 9.49087 10.2448 9.55356C10.2591 9.61082 10.2951 9.65912 10.346 9.68964C10.3461 9.68971 10.3462 9.68987 10.3464 9.68995L11.8007 10.5624C11.8601 10.5981 11.8794 10.6752 11.8437 10.7348C11.808 10.7942 11.731 10.8136 11.6714 10.7778L9.88589 9.70671C9.83524 9.67635 9.77561 9.66738 9.71835 9.68178C9.66093 9.69609 9.61263 9.73196 9.58219 9.78285C9.55167 9.83358 9.54286 9.89313 9.55702 9.95039C9.57134 10.0077 9.60729 10.056 9.6581 10.0865L10.0055 10.2949L11.4435 11.1577C11.5029 11.1934 11.5222 11.2704 11.4865 11.33C11.4508 11.3894 11.3738 11.4087 11.3142 11.373L9.85955 10.5003C9.75493 10.4374 9.61869 10.4715 9.55577 10.5763C9.52525 10.6271 9.51644 10.6866 9.5306 10.7439C9.54491 10.8012 9.58086 10.8495 9.63175 10.8801L9.98839 11.094L11.0864 11.7528C11.1458 11.7885 11.1651 11.8656 11.1294 11.9251C11.0937 11.9845 11.0167 12.004 10.9571 11.9681L9.85907 11.3094C9.80842 11.279 9.74903 11.27 9.69145 11.2844C9.63419 11.2988 9.58574 11.3346 9.5553 11.3854C9.52486 11.4362 9.51597 11.4958 9.53012 11.553C9.54444 11.6102 9.58039 11.6585 9.63128 11.6891L11.8572 13.0244C12.2184 13.2411 12.6349 13.3162 13.0297 13.2356C13.4203 13.1559 13.7429 12.9327 13.9382 12.6072C14.2537 12.0816 14.2083 11.4848 13.8169 11.0107L13.8168 11.0107Z" fill="#103E13"/>
</svg>
