<svg width="17" height="17" viewBox="0 0 17 17" fill="none" xmlns="http://www.w3.org/2000/svg">
<g clip-path="url(#clip0_1_1886)">
<path d="M14.9707 4.64803C14.9707 4.80361 15.0984 4.92973 15.2559 4.92973H15.5411C15.6986 4.92973 15.8262 4.80361 15.8262 4.64803C15.8262 4.49245 15.6986 4.36633 15.5411 4.36633H15.2559C15.0984 4.36633 14.9707 4.49245 14.9707 4.64803Z" fill="#212326"/>
<path d="M6.70054 13.3807H8.08589L7.68258 12.9823C7.57562 12.8767 7.43055 12.8173 7.27929 12.8173H6.70054C4.49554 12.8173 2.70805 11.0516 2.70805 8.87353C2.70805 6.69543 4.49554 4.92974 6.70054 4.92973H11.2634C13.4684 4.92973 15.2559 6.69543 15.2559 8.87353C15.2559 11.0516 13.4684 12.8173 11.2634 12.8173H9.55651C9.3296 12.8173 9.112 12.7283 8.95155 12.5698L8.47907 12.1031C8.21166 11.8389 7.84896 11.6905 7.47079 11.6905H6.70054C5.12554 11.6905 3.84876 10.4293 3.84876 8.87353C3.84876 7.31774 5.12554 6.05653 6.70054 6.05653H11.2634C12.8384 6.05653 14.1152 7.31774 14.1152 8.87353C14.1152 10.4293 12.8384 11.6905 11.2634 11.6905H10.1674C9.9405 11.6905 9.7229 11.6015 9.56244 11.443L9.08994 10.9763C8.82253 10.7121 8.45986 10.5637 8.08169 10.5637H6.70054C5.75555 10.5637 4.98947 9.80699 4.98947 8.87353C4.98947 7.94007 5.75555 7.18333 6.70054 7.18333H11.2634C12.2084 7.18333 12.9744 7.94007 12.9744 8.87353C12.9744 9.79561 12.2269 10.5453 11.2979 10.5634L11.2977 10.5637H10.8804C10.6534 10.5637 10.4358 10.4747 10.2754 10.3162L9.80288 9.84948C9.58348 9.63272 9.29992 9.49392 8.99629 9.45108L8.98196 9.43693H6.70054C6.38554 9.43693 6.13018 9.18469 6.13018 8.87353C6.13018 8.56238 6.38554 8.31013 6.70054 8.31013H11.2634C11.5784 8.31013 11.8337 8.56238 11.8337 8.87353C11.8337 9.18469 11.5784 9.43693 11.2634 9.43693H10.1227L10.526 9.83532C10.6329 9.94097 10.778 10.0003 10.9293 10.0003H11.2634C11.8934 10.0003 12.4041 9.49584 12.4041 8.87353C12.4041 8.25122 11.8934 7.74673 11.2634 7.74673H6.70054C6.07055 7.74673 5.55983 8.25122 5.55983 8.87353C5.55983 9.49584 6.07055 10.0003 6.70054 10.0003H8.79463C9.02154 10.0003 9.23914 10.0894 9.3996 10.2478L9.8721 10.7146C10.1395 10.9787 10.5022 11.1271 10.8804 11.1271H11.406V11.1228C12.5995 11.0501 13.5448 10.0708 13.5448 8.87353C13.5448 7.62891 12.5234 6.61993 11.2634 6.61993H6.70054C5.44055 6.61993 4.41912 7.62891 4.41912 8.87353C4.41912 10.1182 5.44055 11.1271 6.70054 11.1271H8.08169C8.3086 11.1271 8.5262 11.2162 8.68665 11.3746L9.15916 11.8414C9.42656 12.1055 9.78924 12.2539 10.1674 12.2539H11.2634C13.1534 12.2539 14.6855 10.7405 14.6855 8.87353C14.6855 7.00658 13.1534 5.49313 11.2634 5.49313H6.70054C4.81054 5.49313 3.27841 7.00658 3.27841 8.87353C3.27841 10.7405 4.81054 12.2539 6.70054 12.2539H7.47079C7.6977 12.2539 7.9153 12.343 8.07576 12.5014L8.54826 12.9682C8.81567 13.2323 9.17834 13.3807 9.55651 13.3807H11.2634C13.7834 13.3807 15.8262 11.3628 15.8262 8.87353C15.8262 6.38427 13.7834 4.36633 11.2634 4.36633L6.70054 4.36633C4.18055 4.36633 2.1377 6.38428 2.1377 8.87353C2.1377 11.3628 4.18055 13.3807 6.70054 13.3807Z" fill="#212326"/>
</g>
<defs>
<clipPath id="clip0_1_1886">
<rect width="13.6885" height="9.0144" fill="white" transform="translate(2.1377 4.36633)"/>
</clipPath>
</defs>
</svg>
