<svg width="148" height="111" viewBox="0 0 148 111" fill="none" xmlns="http://www.w3.org/2000/svg">
<path d="M74.117 110.287C105.688 110.287 131.281 108.793 131.281 106.95C131.281 105.107 105.688 103.612 74.117 103.612C42.5462 103.612 16.9531 105.107 16.9531 106.95C16.9531 108.793 42.5462 110.287 74.117 110.287Z" fill="#F5F5F5"/>
<path d="M103.379 32.4148L100.454 31.2355C100.454 31.2355 96.5946 38.273 95.489 38.6297C93.9854 39.1132 90.8721 40.4576 89.0265 40.6935C88.7758 40.9883 88.366 41.9052 88.4044 42.2384C90.8839 43.0668 96.3322 41.9671 97.4998 41.1004C100.156 39.1339 103.379 32.4148 103.379 32.4148Z" fill="#E58A7B"/>
<path d="M104.278 30.8139C104.823 32.8275 101.869 36.8785 101.869 36.8785L97.998 34.7085C97.998 34.7085 98.7233 33.0428 99.6078 31.3475C101.026 28.6086 103.656 28.5172 104.278 30.8139Z" fill="#4CAF4F"/>
<path opacity="0.2" d="M104.278 30.8139C104.823 32.8275 101.869 36.8785 101.869 36.8785L97.998 34.7085C97.998 34.7085 98.7233 33.0428 99.6078 31.3475C101.026 28.6086 103.656 28.5172 104.278 30.8139Z" fill="black"/>
<path opacity="0.2" d="M99.5342 35.5752L101.058 36.4302L101.327 31.7513C100.439 32.4324 99.8143 34.4844 99.5342 35.5752Z" fill="black"/>
<path d="M101.731 29.2985C101.731 29.2985 98.7174 36.0028 100.475 48.4857H112.347C112.536 46.6637 111.911 37.7718 114.172 29.1864C112.87 28.9319 111.552 28.7635 110.227 28.6823C108.547 28.5849 106.863 28.5849 105.183 28.6823C104.018 28.8005 102.864 29.0065 101.731 29.2985Z" fill="#4CAF4F"/>
<path opacity="0.2" d="M101.731 29.2985C101.731 29.2985 98.7174 36.0028 100.475 48.4857H112.347C112.536 46.6637 111.911 37.7718 114.172 29.1864C112.87 28.9319 111.552 28.7635 110.227 28.6823C108.547 28.5849 106.863 28.5849 105.183 28.6823C104.018 28.8005 102.864 29.0065 101.731 29.2985Z" fill="black"/>
<g style="mix-blend-mode:multiply">
<path d="M98.9766 107.215C98.9589 107.533 103.461 107.79 109.03 107.79C114.599 107.79 119.134 107.533 119.152 107.215C119.169 106.897 114.67 106.643 109.098 106.643C103.526 106.643 98.9973 106.9 98.9766 107.215Z" fill="#E8ECF1"/>
</g>
<path d="M106.902 98.8487L104.796 99.6638L106.61 104.35L108.716 103.535L106.902 98.8487Z" fill="#E58A7B"/>
<path d="M116.292 104.948H114.072L113.258 99.8091H115.478L116.292 104.948Z" fill="#E58A7B"/>
<path d="M113.918 104.691H116.413C116.456 104.692 116.498 104.707 116.531 104.735C116.564 104.763 116.586 104.802 116.593 104.845L116.914 106.817C116.921 106.867 116.917 106.917 116.902 106.965C116.888 107.013 116.863 107.057 116.83 107.094C116.797 107.132 116.757 107.162 116.711 107.182C116.665 107.202 116.616 107.213 116.566 107.212C115.696 107.197 115.278 107.144 114.181 107.144C113.506 107.144 112.117 107.215 111.18 107.215C110.242 107.215 110.18 106.295 110.566 106.21C112.3 105.835 112.972 105.325 113.55 104.83C113.652 104.74 113.783 104.691 113.918 104.691Z" fill="#263238"/>
<path d="M106.548 103.931L108.907 103.241C108.949 103.229 108.993 103.232 109.034 103.249C109.074 103.266 109.107 103.297 109.128 103.335L110.012 105.104C110.033 105.149 110.043 105.198 110.043 105.247C110.043 105.297 110.032 105.345 110.01 105.39C109.989 105.435 109.959 105.474 109.921 105.506C109.883 105.537 109.839 105.56 109.791 105.573C108.933 105.809 108.358 105.953 107.285 106.266C106.545 106.481 105.79 106.832 105.059 107.065C104.552 107.227 103.361 107.233 102.745 107.233C101.834 107.233 101.63 106.272 102.022 106.227C103.01 106.118 103.143 106.168 103.688 105.894C104.581 105.504 105.389 104.946 106.07 104.249C106.199 104.103 106.363 103.993 106.548 103.931Z" fill="#263238"/>
<path d="M89.3977 40.6816L86.9565 39.6586L85.9512 42.3651C86.9517 42.5175 87.9696 42.5175 88.9702 42.3651L89.3977 40.6816Z" fill="#E58A7B"/>
<path d="M85.1405 39.5879L85.0757 41.3863L85.9513 42.3593L86.9567 39.6528L85.1405 39.5879Z" fill="#E58A7B"/>
<path d="M107.191 99.2466L105.079 100.062L106.014 102.485L108.126 101.67L107.191 99.2466Z" fill="#CF6F64"/>
<path d="M115.478 99.8091H113.258L113.68 102.46H115.9L115.478 99.8091Z" fill="#CF6F64"/>
<path opacity="0.2" d="M100.097 45.11C100.141 45.6436 100.192 46.189 100.256 46.7492L109.083 43.8835C110.462 43.4749 111.66 42.6087 112.48 41.4276C112.515 40.6404 112.559 39.8119 112.627 38.9481C112.657 38.5294 112.692 38.099 112.73 37.6627C112.769 37.2263 112.822 36.7428 112.878 36.277L100.097 45.11Z" fill="black"/>
<path d="M102.98 35.4397L102.686 35.4043C102.859 33.9302 103.959 32.7686 105.118 32.798V33.0929C104.104 33.0722 103.137 34.1189 102.98 35.4397Z" fill="white"/>
<path d="M104.552 38.1609H104.502V37.866C105.516 37.9044 106.468 36.8459 106.625 35.5281L106.92 35.5635C106.763 37.0052 105.699 38.1609 104.552 38.1609Z" fill="white"/>
<path d="M110.062 23.001C109.647 24.6255 109.157 27.6003 110.227 28.6823C110.227 28.6823 109.478 30.3304 106.462 30.3304C103.706 30.3304 105.183 28.6823 105.183 28.6823C107.017 28.2518 107.049 26.9133 106.807 25.6456L110.062 23.001Z" fill="#E58A7B"/>
<path d="M108.735 24.0801L106.81 25.6456C106.87 25.9369 106.904 26.2328 106.913 26.5301C107.476 27.0903 108.606 25.6721 108.721 24.9469C108.779 24.6613 108.784 24.3674 108.735 24.0801Z" fill="#CF6F64"/>
<path d="M103.499 22.9803C103.633 23.2125 103.814 23.4145 104.029 23.5738C104.245 23.7331 104.491 23.8462 104.752 23.906C105.46 24.0623 105.814 23.4107 105.619 22.7562C105.445 22.1666 104.864 21.3735 104.145 21.5091C103.991 21.5408 103.847 21.609 103.724 21.708C103.602 21.8069 103.505 21.9338 103.442 22.0778C103.379 22.2219 103.351 22.379 103.361 22.536C103.371 22.693 103.418 22.8454 103.499 22.9803Z" fill="#CF6F64"/>
<path d="M104.67 17.7825C103.567 18.2866 103.178 22.6678 104.563 23.3164C105.949 23.965 106.757 16.8243 104.67 17.7825Z" fill="#263238"/>
<path d="M110.398 20.5569C110.133 22.7563 110.103 24.0506 108.924 25.1768C108.558 25.5505 108.097 25.816 107.59 25.9439C107.083 26.0718 106.551 26.0572 106.052 25.9016C105.553 25.7461 105.107 25.4556 104.762 25.0624C104.418 24.6691 104.189 24.1884 104.101 23.6732C103.744 21.6979 104.236 18.4341 106.442 17.5585C106.905 17.3541 107.414 17.2774 107.917 17.3363C108.42 17.3952 108.899 17.5875 109.302 17.8934C109.706 18.1992 110.02 18.6075 110.213 19.0758C110.406 19.5442 110.47 20.0555 110.398 20.5569Z" fill="#E58A7B"/>
<path d="M106.775 18.9206C108.408 18.5049 109.608 18.2219 109.178 19.581C108.609 21.3971 107.925 23.1543 108.841 23.2339C109.402 23.284 111.878 22.2345 111.563 21.1701C111.288 20.2444 112.447 19.9908 112.654 19.522C113.417 17.8239 111.232 18.0479 111.622 17.016C112.011 15.9841 109.853 14.3213 108.673 15.1498C106.754 16.4883 103.461 16.4677 105.191 14.2653C106.433 12.6939 104.219 13.0152 104.219 13.0152C104.219 13.0152 105.557 13.8083 103.305 15.0348C100.922 16.3438 103.107 19.8611 106.775 18.9206Z" fill="#263238"/>
<path d="M111.265 22.9803C110.943 23.4469 110.458 23.7768 109.906 23.906C109.178 24.0623 108.898 23.4107 109.172 22.7562C109.416 22.1666 110.089 21.3735 110.784 21.5091C111.48 21.6447 111.639 22.4024 111.265 22.9803Z" fill="#E58A7B"/>
<path d="M100.474 48.4857C100.474 48.4857 98.4812 66.3227 98.325 73.0919C98.1658 80.1323 105.079 102.1 105.079 102.1L108.617 100.626C108.617 100.626 104.49 80.554 105.079 73.6403C105.704 66.1016 108.287 48.4975 108.287 48.4975L100.474 48.4857Z" fill="#4CAF4F"/>
<path opacity="0.2" d="M105.427 53.3828C103.838 56.679 104.909 63.1976 105.769 67.0598C106.097 64.3326 106.486 61.3726 106.854 58.6337C106.819 54.4235 106.492 51.1716 105.427 53.3828Z" fill="black"/>
<path d="M108.461 99.4583C108.479 99.4583 108.88 100.584 108.88 100.584L104.799 102.3L104.157 101.103L108.461 99.4583Z" fill="#4CAF4F"/>
<path d="M104.688 48.4857C104.688 48.4857 106.212 65.45 107.22 71.8035C108.329 78.7644 112.674 101.947 112.674 101.947H116.74C116.74 101.947 114.305 79.3275 113.845 72.4344C113.344 64.9577 112.347 48.4857 112.347 48.4857H104.688Z" fill="#4CAF4F"/>
<path d="M116.802 100.888C116.819 100.888 116.937 102.023 116.937 102.023H112.468L112.149 100.72L116.802 100.888Z" fill="#4CAF4F"/>
<path opacity="0.2" d="M115.245 99.5438C115.236 99.5439 115.227 99.5407 115.22 99.5347C115.213 99.5287 115.208 99.5204 115.207 99.5113C115.183 99.305 112.987 78.8735 112.574 72.6822C112.126 65.966 111.224 51.0685 111.215 50.9181C111.215 50.9132 111.215 50.9083 111.217 50.9036C111.218 50.899 111.221 50.8947 111.224 50.8911C111.228 50.8875 111.232 50.8847 111.236 50.8827C111.241 50.8807 111.245 50.8797 111.25 50.8798C111.26 50.8797 111.269 50.8834 111.276 50.8899C111.284 50.8965 111.288 50.9055 111.289 50.9151C111.289 51.0655 112.2 65.9513 112.648 72.6792C113.061 78.8706 115.257 99.2873 115.278 99.5084C115.279 99.5133 115.278 99.5183 115.277 99.523C115.276 99.5278 115.274 99.5323 115.271 99.5362C115.268 99.5401 115.264 99.5433 115.259 99.5456C115.255 99.5479 115.25 99.5493 115.245 99.5497V99.5438Z" fill="black"/>
<path d="M107.026 21.1701C107.026 21.35 106.914 21.4944 106.796 21.4944C106.678 21.4944 106.592 21.35 106.604 21.1701C106.616 20.9903 106.716 20.8458 106.834 20.8458C106.952 20.8458 107.038 20.9932 107.026 21.1701Z" fill="#263238"/>
<path d="M105.003 21.1701C105.003 21.35 104.888 21.4944 104.773 21.4944C104.658 21.4944 104.569 21.35 104.578 21.1701C104.587 20.9903 104.693 20.8458 104.811 20.8458C104.929 20.8458 105.015 20.9932 105.003 21.1701Z" fill="#263238"/>
<path d="M105.64 21.2615C105.394 21.8106 105.076 22.3251 104.696 22.7916C104.991 23.0864 105.542 22.9508 105.542 22.9508L105.64 21.2615Z" fill="#DF5753"/>
<path d="M105.693 23.7027C105.686 23.7027 105.679 23.7013 105.673 23.6986C105.667 23.6959 105.661 23.6919 105.656 23.687C105.652 23.682 105.648 23.6761 105.646 23.6697C105.643 23.6633 105.642 23.6564 105.643 23.6496C105.643 23.6353 105.65 23.6218 105.66 23.6119C105.671 23.602 105.684 23.5965 105.699 23.5965C105.924 23.5981 106.147 23.5491 106.351 23.4532C106.555 23.3573 106.735 23.2169 106.878 23.0423C106.888 23.0334 106.901 23.0284 106.915 23.0284C106.928 23.0284 106.941 23.0334 106.952 23.0423C106.961 23.0522 106.967 23.0654 106.967 23.0791C106.967 23.0929 106.961 23.1061 106.952 23.116C106.799 23.3015 106.607 23.4506 106.389 23.5521C106.171 23.6536 105.933 23.7051 105.693 23.7027Z" fill="#263238"/>
<path d="M107.385 20.6276C107.371 20.6348 107.355 20.6386 107.339 20.6386C107.324 20.6386 107.308 20.6348 107.294 20.6276C107.183 20.5563 107.058 20.5119 106.927 20.4981C106.797 20.4843 106.665 20.5014 106.542 20.548C106.53 20.554 106.517 20.5575 106.504 20.5584C106.49 20.5592 106.477 20.5574 106.464 20.553C106.452 20.5486 106.44 20.5417 106.43 20.5328C106.42 20.5238 106.412 20.5129 106.406 20.5008C106.395 20.4746 106.395 20.4451 106.406 20.4187C106.416 20.3922 106.436 20.3709 106.462 20.3593C106.617 20.2963 106.784 20.2715 106.949 20.2869C107.115 20.3023 107.275 20.3575 107.415 20.4477C107.426 20.4554 107.436 20.4653 107.443 20.4767C107.451 20.4882 107.456 20.501 107.458 20.5144C107.461 20.5279 107.46 20.5417 107.457 20.555C107.455 20.5684 107.449 20.581 107.441 20.5922C107.426 20.6091 107.407 20.6214 107.385 20.6276Z" fill="#263238"/>
<path d="M104.222 20.0379C104.206 20.0341 104.192 20.0259 104.18 20.0143C104.171 20.0047 104.163 19.9933 104.157 19.9806C104.152 19.9679 104.149 19.9544 104.149 19.9406C104.149 19.9269 104.152 19.9133 104.157 19.9006C104.163 19.888 104.171 19.8765 104.18 19.8669C104.293 19.7402 104.434 19.6412 104.592 19.5778C104.749 19.5144 104.919 19.4882 105.088 19.5013C105.102 19.5034 105.115 19.5083 105.127 19.5156C105.138 19.5229 105.148 19.5325 105.156 19.5439C105.164 19.5552 105.169 19.568 105.172 19.5815C105.174 19.595 105.174 19.6088 105.171 19.6222C105.165 19.6495 105.149 19.6736 105.126 19.6898C105.103 19.7061 105.075 19.7135 105.047 19.7107C104.913 19.7022 104.779 19.7244 104.655 19.7755C104.531 19.8265 104.42 19.9052 104.331 20.0055C104.317 20.0204 104.3 20.0313 104.281 20.0371C104.262 20.0428 104.241 20.0431 104.222 20.0379Z" fill="#263238"/>
<path d="M115.313 32.0874L112.247 31.2708C112.247 31.2708 109.24 38.6738 108.175 39.1544C106.731 39.8148 103.072 42.1027 101.515 43.1847C101.43 43.5532 101.498 44.5291 101.692 44.7974C104.346 44.3139 109.426 42.3592 110.487 41.3656C112.907 39.0984 115.313 32.0874 115.313 32.0874Z" fill="#E58A7B"/>
<path d="M113.173 105.081C113.023 105.092 112.874 105.052 112.751 104.966C112.713 104.931 112.685 104.888 112.669 104.839C112.653 104.791 112.65 104.739 112.66 104.688C112.661 104.657 112.672 104.627 112.689 104.601C112.707 104.575 112.731 104.554 112.76 104.541C113.008 104.414 113.7 104.854 113.78 104.904C113.789 104.909 113.795 104.917 113.799 104.927C113.803 104.936 113.803 104.947 113.801 104.957C113.798 104.967 113.793 104.977 113.786 104.984C113.779 104.992 113.769 104.998 113.759 105.001C113.567 105.048 113.37 105.075 113.173 105.081ZM112.878 104.621C112.855 104.616 112.832 104.616 112.81 104.621C112.799 104.626 112.789 104.635 112.783 104.646C112.777 104.657 112.774 104.67 112.775 104.683C112.767 104.717 112.768 104.753 112.778 104.786C112.789 104.82 112.808 104.85 112.834 104.874C112.949 104.977 113.237 104.989 113.618 104.915C113.391 104.766 113.136 104.666 112.869 104.621H112.878Z" fill="#4CAF4F"/>
<path d="M113.744 105.001C113.737 105.003 113.728 105.003 113.721 105.001C113.5 104.877 113.084 104.391 113.146 104.143C113.155 104.104 113.177 104.069 113.209 104.044C113.24 104.018 113.279 104.005 113.32 104.004C113.359 103.999 113.4 104.002 113.438 104.014C113.476 104.026 113.511 104.046 113.541 104.072C113.786 104.282 113.8 104.924 113.8 104.957C113.802 104.966 113.8 104.976 113.795 104.985C113.79 104.993 113.783 105 113.774 105.004C113.764 105.006 113.754 105.005 113.744 105.001ZM113.349 104.102H113.329C113.261 104.102 113.252 104.14 113.249 104.155C113.214 104.299 113.476 104.668 113.694 104.842C113.693 104.593 113.616 104.35 113.473 104.146C113.439 104.116 113.395 104.1 113.349 104.102Z" fill="#4CAF4F"/>
<path d="M105.345 104.712C105.165 104.775 104.968 104.775 104.788 104.712C104.747 104.69 104.712 104.658 104.687 104.618C104.662 104.579 104.647 104.534 104.643 104.488C104.64 104.459 104.643 104.429 104.654 104.402C104.665 104.374 104.683 104.35 104.705 104.332C104.941 104.119 105.905 104.332 106.014 104.373C106.025 104.376 106.034 104.382 106.04 104.39C106.047 104.399 106.05 104.409 106.05 104.42C106.05 104.431 106.047 104.442 106.042 104.452C106.036 104.461 106.027 104.469 106.017 104.473C105.8 104.571 105.575 104.651 105.345 104.712ZM104.865 104.361C104.831 104.368 104.799 104.383 104.773 104.405C104.764 104.412 104.757 104.422 104.752 104.433C104.748 104.444 104.747 104.456 104.75 104.467C104.752 104.498 104.761 104.528 104.778 104.554C104.794 104.581 104.817 104.602 104.844 104.618C105 104.7 105.363 104.635 105.832 104.438C105.516 104.358 105.189 104.332 104.865 104.361Z" fill="#4CAF4F"/>
<path d="M106.008 104.473H105.985C105.69 104.42 105.1 104.081 105.083 103.828C105.083 103.769 105.109 103.686 105.251 103.639C105.298 103.622 105.349 103.615 105.4 103.618C105.45 103.621 105.5 103.634 105.545 103.657C105.864 103.813 106.032 104.379 106.041 104.405C106.043 104.414 106.043 104.424 106.04 104.432C106.037 104.441 106.033 104.449 106.026 104.455C106.022 104.463 106.015 104.469 106.008 104.473ZM105.31 103.727H105.28C105.189 103.76 105.189 103.798 105.189 103.81C105.189 103.963 105.616 104.243 105.914 104.338C105.845 104.101 105.7 103.893 105.501 103.748C105.442 103.718 105.374 103.71 105.31 103.727Z" fill="#4CAF4F"/>
<path d="M101.766 43.0107L98.6907 44.4259L98.334 45.3104L99.4691 46.074C99.4691 46.074 101.592 45.844 102.196 44.479L101.766 43.0107Z" fill="#E58A7B"/>
<path d="M101.896 44.8475C101.827 44.2567 101.632 43.6876 101.324 43.1788L101.81 42.8132C102.176 43.3994 102.41 44.0585 102.494 44.7443L101.896 44.8475Z" fill="#263238"/>
<path d="M102.42 43.4294C102.485 43.5317 102.517 43.6515 102.512 43.7725C102.506 43.8936 102.464 44.01 102.39 44.1059C102.316 44.2019 102.214 44.2727 102.098 44.3088C101.983 44.3448 101.859 44.3444 101.743 44.3075C101.628 44.2706 101.526 44.199 101.453 44.1026C101.38 44.0061 101.338 43.8894 101.333 43.7683C101.329 43.6472 101.362 43.5277 101.427 43.4259C101.493 43.3241 101.589 43.2451 101.701 43.1995C101.827 43.1353 101.973 43.1234 102.108 43.1665C102.243 43.2095 102.355 43.304 102.42 43.4294Z" fill="#263238"/>
<path d="M96.6123 45.5698L97.0221 45.9826L99.7817 44.8033L98.6908 44.4259L96.6123 45.5698Z" fill="#E58A7B"/>
<path opacity="0.2" d="M108.461 99.4583C108.479 99.4583 108.88 100.584 108.88 100.584L104.799 102.3L104.157 101.103L108.461 99.4583Z" fill="black"/>
<path opacity="0.2" d="M116.802 100.888C116.819 100.888 116.937 102.023 116.937 102.023H112.468L112.149 100.72L116.802 100.888Z" fill="black"/>
<path d="M116.112 31.2384C116.923 33.8535 113.754 37.4297 113.754 37.4297L109.375 35.6431C109.894 34.1316 110.493 32.6485 111.168 31.2C112.512 28.3019 115.293 28.5997 116.112 31.2384Z" fill="#4CAF4F"/>
<path opacity="0.2" d="M116.112 31.2384C116.923 33.8535 113.754 37.4297 113.754 37.4297L109.375 35.6431C109.894 34.1316 110.493 32.6485 111.168 31.2C112.512 28.3019 115.293 28.5997 116.112 31.2384Z" fill="black"/>
<path d="M72.6076 5.03723H70.7236V5.3409H72.6076V5.03723Z" fill="#4CAF4F"/>
<path d="M96.9951 17.0562L96.7671 22.1162L97.0705 22.1299L97.2985 17.0699L96.9951 17.0562Z" fill="#4CAF4F"/>
<path d="M96.409 6.39929H61.6195L58.3823 78.844H93.1718L96.409 6.39929Z" fill="#4CAF4F"/>
<path opacity="0.56" d="M95.3714 7.39575H60.5819L57.3447 79.8404H92.1342L95.3714 7.39575Z" fill="#FAFAFA"/>
<path opacity="0.07" d="M94.3333 8.3894H59.5439L56.3037 80.8341H91.0932L94.3333 8.3894Z" fill="#4CAF4F"/>
<path d="M90.3737 39.9858H60.6788L60.4312 45.5286H90.126L90.3737 39.9858Z" fill="white"/>
<path d="M77.0092 35.9409H60.8586L60.7495 38.4204H76.9001L77.0092 35.9409Z" fill="#4CAF4F"/>
<path d="M89.7047 54.9453H60.0099L59.7622 60.488H89.4571L89.7047 54.9453Z" fill="white"/>
<path opacity="0.47" d="M84.259 67.9738H64.2904L63.9927 74.6162H83.9613L84.259 67.9738Z" fill="#4CAF4F"/>
<path d="M82.9236 75.648H62.955C62.9463 75.6503 62.9372 75.6503 62.9285 75.648C62.9255 75.6394 62.9255 75.6301 62.9285 75.6215L63.2233 68.9761C63.2233 68.9716 63.2242 68.9671 63.226 68.963C63.2278 68.9588 63.2305 68.9551 63.2338 68.9521C63.2371 68.949 63.2411 68.9467 63.2453 68.9453C63.2496 68.9438 63.2542 68.9433 63.2587 68.9437H83.2272C83.2309 68.9419 83.2349 68.9409 83.239 68.9409C83.2431 68.9409 83.2472 68.9419 83.2508 68.9437C83.2529 68.9473 83.254 68.9513 83.254 68.9555C83.254 68.9596 83.2529 68.9637 83.2508 68.9673L82.9619 75.6274C82.9584 75.6343 82.9528 75.64 82.9459 75.6437C82.9391 75.6474 82.9313 75.6489 82.9236 75.648ZM62.9904 75.5773H82.8882L83.183 69.0026H63.2852L62.9904 75.5773Z" fill="white"/>
<path d="M73.5217 50.9003H60.1897L60.0806 53.3827H73.4097L73.5217 50.9003Z" fill="#4CAF4F"/>
<path d="M83.879 22.0811C83.8028 23.6942 83.2292 25.2442 82.2368 26.5182C81.5023 27.4806 80.557 28.2618 79.4735 28.802C78.39 29.3423 77.1972 29.627 75.9865 29.6345C75.0082 29.642 74.0387 29.4491 73.1377 29.0677C72.2368 28.6863 71.4235 28.1244 70.7479 27.4168C70.0723 26.7092 69.5487 25.8707 69.2094 24.9531C68.8701 24.0354 68.7223 23.058 68.7751 22.0811C68.8788 20.0539 69.753 18.1428 71.2189 16.7388C72.6849 15.3348 74.6319 14.5438 76.6617 14.5277C77.6407 14.5185 78.6113 14.7103 79.5133 15.091C80.4154 15.4718 81.2297 16.0334 81.9062 16.7414C82.5826 17.4493 83.1066 18.2883 83.4459 19.2068C83.7853 20.1252 83.9327 21.1035 83.879 22.0811Z" fill="white"/>
<path d="M84.5894 16.1079C84.5702 16.5368 84.4177 16.9491 84.1531 17.2872C83.9573 17.5428 83.7057 17.7503 83.4176 17.8939C83.1294 18.0375 82.8122 18.1133 82.4903 18.1157C82.1783 18.1176 81.8707 18.0431 81.5942 17.8987C81.3177 17.7542 81.0808 17.5443 80.9041 17.2872C80.6702 16.9398 80.5544 16.5263 80.5739 16.1079C80.6024 15.5697 80.8351 15.0626 81.2247 14.6901C81.6142 14.3175 82.1311 14.1076 82.6701 14.1031C82.9301 14.1007 83.1879 14.1516 83.4275 14.2527C83.6671 14.3537 83.8834 14.5027 84.0632 14.6905C84.2431 14.8783 84.3825 15.101 84.473 15.3448C84.5635 15.5885 84.6031 15.8483 84.5894 16.1079Z" fill="#4CAF4F"/>
<path d="M63.8776 42.7572C63.8634 42.9948 63.7597 43.2181 63.5874 43.3823C63.415 43.5464 63.1869 43.6391 62.9489 43.6417C62.834 43.643 62.72 43.6208 62.614 43.5764C62.5081 43.532 62.4123 43.4663 62.3327 43.3834C62.2532 43.3005 62.1914 43.2021 62.1514 43.0944C62.1113 42.9867 62.0937 42.8719 62.0998 42.7572C62.1126 42.5191 62.2159 42.2949 62.3885 42.1305C62.5611 41.9661 62.7901 41.8739 63.0285 41.8727C63.1433 41.8718 63.2571 41.8943 63.3628 41.9389C63.4686 41.9834 63.5642 42.0491 63.6437 42.1319C63.7232 42.2147 63.7849 42.3129 63.8252 42.4204C63.8654 42.5279 63.8832 42.6425 63.8776 42.7572Z" fill="#263238"/>
<path d="M67.8522 42.7572C67.8387 42.995 67.7352 43.2188 67.5627 43.3831C67.3902 43.5474 67.1617 43.6398 66.9235 43.6417C66.8088 43.6427 66.6952 43.6201 66.5895 43.5755C66.4839 43.5309 66.3885 43.4652 66.3093 43.3823C66.23 43.2995 66.1685 43.2013 66.1286 43.0938C66.0888 42.9863 66.0713 42.8717 66.0773 42.7572C66.0901 42.5197 66.193 42.2959 66.365 42.1316C66.537 41.9672 66.7652 41.8746 67.0031 41.8727C67.118 41.8714 67.232 41.8936 67.3379 41.938C67.4439 41.9824 67.5397 42.0481 67.6193 42.131C67.6988 42.2139 67.7606 42.3123 67.8006 42.42C67.8407 42.5277 67.8582 42.6425 67.8522 42.7572Z" fill="#263238"/>
<path d="M71.8291 42.7572C71.8156 42.995 71.7121 43.2188 71.5396 43.3831C71.3672 43.5474 71.1386 43.6398 70.9004 43.6417C70.7856 43.6426 70.6718 43.6201 70.5661 43.5756C70.4603 43.531 70.3647 43.4653 70.2852 43.3825C70.2057 43.2997 70.144 43.2015 70.1038 43.094C70.0635 42.9865 70.0457 42.8719 70.0513 42.7572C70.0648 42.5194 70.1683 42.2956 70.3408 42.1313C70.5133 41.9671 70.7418 41.8746 70.98 41.8727C71.0949 41.8714 71.2089 41.8936 71.3149 41.938C71.4208 41.9824 71.5166 42.0481 71.5962 42.131C71.6758 42.2139 71.7375 42.3123 71.7775 42.42C71.8176 42.5277 71.8352 42.6425 71.8291 42.7572Z" fill="#263238"/>
<path d="M63.2085 57.7167C63.1943 57.9542 63.0906 58.1776 62.9183 58.3417C62.7459 58.5059 62.5178 58.5986 62.2798 58.6011C62.165 58.6021 62.0512 58.5796 61.9455 58.535C61.8397 58.4904 61.7441 58.4247 61.6646 58.3419C61.5851 58.2591 61.5234 58.1609 61.4831 58.0534C61.4429 57.9459 61.4251 57.8313 61.4307 57.7167C61.4442 57.4788 61.5477 57.2551 61.7202 57.0908C61.8927 56.9265 62.1212 56.834 62.3594 56.8322C62.4742 56.8312 62.588 56.8537 62.6937 56.8983C62.7995 56.9429 62.8951 57.0086 62.9746 57.0914C63.0541 57.1742 63.1158 57.2724 63.1561 57.3799C63.1963 57.4874 63.2141 57.602 63.2085 57.7167Z" fill="#263238"/>
<path d="M67.1828 57.7167C67.1693 57.954 67.0662 58.1773 66.8944 58.3415C66.7225 58.5057 66.4947 58.5985 66.257 58.6011C66.1421 58.6025 66.0281 58.5803 65.9221 58.5359C65.8162 58.4914 65.7204 58.4257 65.6408 58.3428C65.5613 58.2599 65.4995 58.1616 65.4595 58.0539C65.4194 57.9462 65.4018 57.8314 65.4079 57.7167C65.4214 57.4788 65.5249 57.2551 65.6974 57.0908C65.8699 56.9265 66.0984 56.834 66.3366 56.8322C66.4513 56.8312 66.5649 56.8537 66.6705 56.8983C66.7762 56.9429 66.8716 57.0087 66.9508 57.0916C67.0301 57.1744 67.0916 57.2726 67.1314 57.3801C67.1713 57.4876 67.1888 57.6022 67.1828 57.7167Z" fill="#263238"/>
<path d="M71.1688 57.7167C71.1553 57.9545 71.0518 58.1783 70.8793 58.3426C70.7069 58.5068 70.4783 58.5993 70.2401 58.6012C70.1254 58.6017 70.0119 58.5789 69.9063 58.5342C69.8007 58.4894 69.7053 58.4237 69.6259 58.341C69.5465 58.2583 69.4847 58.1603 69.4443 58.053C69.404 57.9456 69.3858 57.8312 69.391 57.7167C69.4052 57.4791 69.5089 57.2557 69.6812 57.0916C69.8536 56.9275 70.0817 56.8348 70.3197 56.8322C70.4346 56.8308 70.5486 56.8531 70.6546 56.8975C70.7605 56.9419 70.8563 57.0076 70.9359 57.0905C71.0155 57.1734 71.0772 57.2717 71.1173 57.3795C71.1573 57.4872 71.1749 57.6019 71.1688 57.7167Z" fill="#263238"/>
<path d="M75.1371 57.7167C75.1229 57.9542 75.0192 58.1776 74.8469 58.3417C74.6745 58.5059 74.4464 58.5986 74.2084 58.6011C74.0937 58.6017 73.9801 58.5789 73.8745 58.5341C73.769 58.4894 73.6736 58.4237 73.5941 58.341C73.5147 58.2583 73.453 58.1603 73.4126 58.0529C73.3722 57.9456 73.3541 57.8312 73.3593 57.7167C73.3734 57.4791 73.4771 57.2557 73.6495 57.0916C73.8218 56.9274 74.05 56.8347 74.288 56.8322C74.4028 56.8312 74.5165 56.8537 74.6223 56.8983C74.7281 56.9429 74.8237 57.0086 74.9032 57.0914C74.9827 57.1742 75.0444 57.2724 75.0846 57.3799C75.1248 57.4874 75.1427 57.602 75.1371 57.7167Z" fill="#263238"/>
<path d="M79.1291 57.7167C79.1149 57.9542 79.0112 58.1776 78.8389 58.3417C78.6665 58.5059 78.4384 58.5986 78.2004 58.6011C78.0855 58.6025 77.9715 58.5803 77.8655 58.5359C77.7595 58.4914 77.6638 58.4257 77.5842 58.3428C77.5046 58.2599 77.4429 58.1616 77.4028 58.0539C77.3628 57.9462 77.3452 57.8314 77.3513 57.7167C77.3647 57.4788 77.4682 57.2551 77.6407 57.0908C77.8132 56.9265 78.0418 56.834 78.28 56.8322C78.3948 56.8312 78.5085 56.8537 78.6143 56.8983C78.7201 56.9429 78.8157 57.0086 78.8952 57.0914C78.9746 57.1742 79.0364 57.2724 79.0766 57.3799C79.1168 57.4874 79.1347 57.602 79.1291 57.7167Z" fill="#263238"/>
<path d="M78.5258 21.6876C79.7598 20.4809 79.8253 18.5466 78.6721 17.3673C77.5188 16.1881 75.5836 16.2103 74.3496 17.4171C73.1156 18.6238 73.0501 20.5581 74.2034 21.7373C75.3566 22.9166 77.2918 22.8944 78.5258 21.6876Z" fill="#4CAF4F"/>
<path d="M82.2366 26.5182C81.5021 27.4805 80.5568 28.2618 79.4733 28.802C78.3898 29.3422 77.197 29.627 75.9863 29.6345C74.8123 29.6444 73.654 29.3654 72.6133 28.8219C71.5727 28.2784 70.6817 27.4873 70.019 26.5182C71.4519 25.0912 73.7191 24.1595 76.231 24.1595C78.7429 24.1595 80.9306 25.0912 82.2366 26.5182Z" fill="#4CAF4F"/>
<path opacity="0.1" d="M78.5258 21.6876C79.7598 20.4809 79.8253 18.5466 78.6721 17.3673C77.5188 16.1881 75.5836 16.2103 74.3496 17.4171C73.1156 18.6238 73.0501 20.5581 74.2034 21.7373C75.3566 22.9166 77.2918 22.8944 78.5258 21.6876Z" fill="white"/>
<path opacity="0.1" d="M82.2366 26.5182C81.5021 27.4805 80.5568 28.2618 79.4733 28.802C78.3898 29.3422 77.197 29.627 75.9863 29.6345C74.8123 29.6444 73.654 29.3654 72.6133 28.8219C71.5727 28.2784 70.6817 27.4873 70.019 26.5182C71.4519 25.0912 73.7191 24.1595 76.231 24.1595C78.7429 24.1595 80.9306 25.0912 82.2366 26.5182Z" fill="white"/>
<path d="M38.8589 46.8641C38.5788 47.4773 38.2839 48.1525 38.0274 48.807C37.7709 49.4615 37.5085 50.1367 37.2815 50.8089C36.818 52.1336 36.465 53.4945 36.2261 54.8775L36.1612 55.3109C36.155 55.3852 36.162 55.4601 36.1818 55.532C36.2514 55.7763 36.361 56.0075 36.5061 56.216C36.8848 56.7557 37.324 57.2503 37.8152 57.6901C38.3331 58.1718 38.8763 58.6255 39.4426 59.0493C40.0087 59.4856 40.6042 59.9101 41.1909 60.3111L40.6396 61.3459C39.2386 60.7355 37.9089 59.9733 36.6742 59.0728C36.0155 58.5924 35.421 58.0297 34.9052 57.3982C34.5995 57.0224 34.3611 56.5964 34.2006 56.1393C34.1073 55.8538 34.0595 55.5553 34.0591 55.2548C34.0591 55.1841 34.0591 55.0809 34.0591 55.0308V54.8863L34.0886 54.5915C34.2576 53.0554 34.5806 51.5403 35.0526 50.0688C35.2826 49.3436 35.5273 48.6212 35.8074 47.9166C36.0875 47.212 36.3764 46.5221 36.7332 45.8057L38.8589 46.8641Z" fill="#E58A7B"/>
<path d="M40.7754 60.1283L42.8598 59.0729L42.3203 61.3607C42.3203 61.3607 40.8904 61.7617 40.2271 61.0659L40.7754 60.1283Z" fill="#E58A7B"/>
<path d="M44.7674 59.4473L44.2131 61.3401L42.3203 61.3607L42.8598 59.0729L44.7674 59.4473Z" fill="#E58A7B"/>
<path d="M47.7095 35.8258C47.821 36.2344 47.9762 36.6298 48.1724 37.0051C48.1151 37.0701 48.0412 37.1184 47.9587 37.1449C47.8762 37.1713 47.788 37.175 47.7036 37.1555L47.7095 35.8258Z" fill="#DF5753"/>
<path d="M47.6479 35.8435C47.77 35.8435 47.869 35.6917 47.869 35.5045C47.869 35.3172 47.77 35.1654 47.6479 35.1654C47.5258 35.1654 47.4268 35.3172 47.4268 35.5045C47.4268 35.6917 47.5258 35.8435 47.6479 35.8435Z" fill="#263238"/>
<path d="M47.583 35.1772L48.0311 35.0504C48.0311 35.0504 47.813 35.3983 47.583 35.1772Z" fill="#263238"/>
<path d="M41.9519 37.9899C42.2202 39.3608 42.4885 41.8757 41.5273 42.7926C41.5273 42.7926 41.9047 44.1842 44.455 44.1842C47.2588 44.1842 45.7935 42.7926 45.7935 42.7926C44.2633 42.427 44.3017 41.2919 44.5699 40.2247L41.9519 37.9899Z" fill="#E58A7B"/>
<path d="M41.2057 34.8648C41.3472 37.1556 41.359 38.1285 42.5147 39.3048C44.2571 41.0738 47.0403 40.4016 47.5857 38.1255C48.0781 36.0618 47.7655 32.6654 45.5219 31.7543C45.0294 31.5515 44.4933 31.4776 43.9643 31.5397C43.4353 31.6017 42.9309 31.7978 42.4988 32.1092C42.0666 32.4206 41.7211 32.8371 41.4948 33.3192C41.2685 33.8014 41.169 34.3334 41.2057 34.8648Z" fill="#E58A7B"/>
<path d="M41.4327 32.2879C40.2829 32.7066 38.7498 32.3941 39.3513 35.9408C39.9881 39.6969 39.0093 40.9322 39.0093 40.9322C39.0093 40.9322 43.3698 41.8609 47.8216 40.8762C47.8216 40.8762 46.4625 38.4999 46.8428 36.7487C47.3293 34.5375 46.946 33.7208 46.946 33.7208C46.946 33.7208 43.0484 31.6983 41.4327 32.2879Z" fill="#263238"/>
<path d="M46.2974 36.0587C46.2986 36.4943 46.4233 36.9206 46.6571 37.2882C46.9696 37.7658 47.3381 37.583 47.4295 37.0759C47.512 36.6307 47.4501 35.8435 47.0521 35.5369C46.6541 35.2303 46.3033 35.531 46.2974 36.0587Z" fill="#E58A7B"/>
<path d="M40.4337 32.6742C40.1035 31.7455 41.6778 30.3156 45.0094 30.9053C48.3409 31.4949 48.4854 34.2692 48.4854 34.2692L47.8132 33.4673L47.8426 34.3105L44.4197 34.968L40.4337 32.6742Z" fill="#263238"/>
<path d="M40.7164 42.9488C40.6968 42.8142 40.7304 42.6772 40.8103 42.5671C40.8901 42.4569 41.0099 42.3823 41.1439 42.3592C42.1817 42.1882 44.5403 41.8403 45.7255 42.0054C46.61 42.1292 46.84 42.6422 46.8783 43.0638C46.8843 43.1376 46.8744 43.2119 46.8493 43.2816C46.8242 43.3512 46.7845 43.4148 46.7329 43.4678C46.6812 43.5209 46.6188 43.5623 46.5498 43.5892C46.4808 43.6161 46.4068 43.628 46.3329 43.624L41.2088 43.394C41.088 43.3879 40.973 43.3403 40.8833 43.2591C40.7936 43.178 40.7346 43.0684 40.7164 42.9488Z" fill="#4CAF4F"/>
<path opacity="0.6" d="M40.7164 42.9488C40.6968 42.8142 40.7304 42.6772 40.8103 42.5671C40.8901 42.4569 41.0099 42.3823 41.1439 42.3592C42.1817 42.1882 44.5403 41.8403 45.7255 42.0054C46.61 42.1292 46.84 42.6422 46.8783 43.0638C46.8843 43.1376 46.8744 43.2119 46.8493 43.2816C46.8242 43.3512 46.7845 43.4148 46.7329 43.4678C46.6812 43.5209 46.6188 43.5623 46.5498 43.5892C46.4808 43.6161 46.4068 43.628 46.3329 43.624L41.2088 43.394C41.088 43.3879 40.973 43.3403 40.8833 43.2591C40.7936 43.178 40.7346 43.0684 40.7164 42.9488Z" fill="black"/>
<path d="M43.6797 94.455L45.5813 95.7758L48.7625 91.4625L46.8609 90.1447L43.6797 94.455Z" fill="#E58A7B"/>
<path d="M39.2451 94.3694L41.2529 95.5134L44.0685 90.9524L42.0607 89.8085L39.2451 94.3694Z" fill="#E58A7B"/>
<path d="M48.7591 91.4625L47.1199 93.6855L45.2183 92.3676L46.8575 90.1447L48.7591 91.4625Z" fill="#CF6F64"/>
<path d="M42.058 89.8085L44.0687 90.9553L42.6181 93.3051L40.6074 92.1582L42.058 89.8085Z" fill="#CF6F64"/>
<path d="M45.2834 57.3481C45.2834 57.3481 52.7071 66.703 51.3126 75.6509C50.1893 82.8771 43.6736 92.6624 43.6736 92.6624L40.6104 91.1411C42.7695 86.8146 44.6121 82.3372 46.1236 77.7442C46.5898 76.3182 46.7258 74.805 46.5215 73.3188C46.3172 71.8325 45.7779 70.4121 44.9443 69.1648C41.1824 63.6722 35.1561 66.9418 39.21 57.3481H45.2834Z" fill="#4CAF4F"/>
<path opacity="0.6" d="M45.2834 57.3481C45.2834 57.3481 52.7071 66.703 51.3126 75.6509C50.1893 82.8771 43.6736 92.6624 43.6736 92.6624L40.6104 91.1411C42.7695 86.8146 44.6121 82.3372 46.1236 77.7442C46.5898 76.3182 46.7258 74.805 46.5215 73.3188C46.3172 71.8325 45.7779 70.4121 44.9443 69.1648C41.1824 63.6722 35.1561 66.9418 39.21 57.3481H45.2834Z" fill="black"/>
<path opacity="0.4" d="M48.9243 63.3567L47.8452 62.2836C47.8452 62.3691 49.9355 75.2736 50.5222 78.9C50.8685 77.8406 51.1336 76.7565 51.3153 75.6569C52.0052 71.2669 50.5635 66.7826 48.9243 63.3567Z" fill="black"/>
<path d="M48.5972 57.3481C48.5972 57.3481 57.5363 69.1058 57.7898 76.1551C57.9992 82.0516 48.0606 93.4761 48.0606 93.4761L45.1713 91.6069C45.1713 91.6069 50.9882 83.4933 52.4535 76.8656C51.8874 70.2969 39.9175 57.3481 39.9175 57.3481H48.5972Z" fill="#4CAF4F"/>
<path opacity="0.6" d="M48.5972 57.3481C48.5972 57.3481 57.5363 69.1058 57.7898 76.1551C57.9992 82.0516 48.0606 93.4761 48.0606 93.4761L45.1713 91.6069C45.1713 91.6069 50.9882 83.4933 52.4535 76.8656C51.8874 70.2969 39.9175 57.3481 39.9175 57.3481H48.5972Z" fill="black"/>
<path d="M37.5382 43.3174C36.5829 43.5444 35.666 47.0175 35.666 47.0175L39.4015 49.5117C39.4015 49.5117 40.6456 46.7639 40.2093 45.561C39.7582 44.308 38.7381 43.0314 37.5382 43.3174Z" fill="#4CAF4F"/>
<path opacity="0.2" d="M38.2692 45.5552L38.0098 48.583L39.3984 49.5147C39.7818 48.6515 40.0657 47.7474 40.2445 46.82L38.2692 45.5552Z" fill="black"/>
<path d="M49.7026 43.3852C49.7026 43.3852 50.8053 43.7714 48.597 57.3452H39.2039C39.3631 53.5124 39.366 51.1538 37.5381 43.3174C38.8533 43.0463 40.1865 42.8709 41.5271 42.7926C42.9473 42.6907 44.373 42.6907 45.7932 42.7926C47.627 42.9606 49.7026 43.3852 49.7026 43.3852Z" fill="#4CAF4F"/>
<path d="M50.6581 45.5551C50.8704 46.1447 51.0945 46.7786 51.3303 47.3889C51.5662 47.9992 51.7903 48.6272 52.0291 49.2463L52.7514 51.0978L52.9342 51.5607L53.0285 51.7906L53.0727 51.9056C53.0727 51.9263 53.0727 51.9263 53.0727 51.9233C53.0189 51.8474 52.9483 51.7848 52.8664 51.7405C52.7497 51.6719 52.6182 51.6324 52.4831 51.6255C52.3708 51.622 52.2591 51.6432 52.1558 51.6875C52.0202 51.7494 52.0202 51.7759 52.0232 51.773C52.0477 51.7533 52.0695 51.7305 52.088 51.7051C52.2512 51.4909 52.3925 51.2607 52.5096 51.0182C52.6482 50.747 52.7809 50.458 52.9135 50.1662C53.173 49.5765 53.4118 48.9662 53.6506 48.35C53.8894 47.7338 54.1164 47.1118 54.3376 46.4838L55.0098 44.6028L56.1448 44.8976C55.9208 46.242 55.6318 47.551 55.2839 48.8837C55.1159 49.547 54.9184 50.2045 54.6943 50.8678C54.5823 51.201 54.4584 51.5312 54.3169 51.8702C54.1694 52.2382 53.9878 52.5916 53.7744 52.9257C53.696 53.0382 53.6093 53.1446 53.515 53.2441C53.3644 53.4067 53.1817 53.5363 52.9784 53.6245C52.798 53.7019 52.6026 53.7382 52.4064 53.7306C52.1867 53.7224 51.9726 53.6585 51.7844 53.5449C51.5622 53.4062 51.3779 53.2148 51.2478 52.9876C51.2035 52.911 51.1652 52.8343 51.1387 52.7783L51.0827 52.6663L50.9706 52.4363L50.7466 51.9793C50.4517 51.3661 50.1569 50.747 49.9004 50.1249C49.6439 49.5028 49.3727 48.8719 49.1191 48.238C48.8656 47.6041 48.6386 46.9702 48.4233 46.2862L50.6581 45.5551Z" fill="#E58A7B"/>
<path d="M49.7026 43.3852C50.8317 43.6535 52.1024 46.9909 52.1024 46.9909L48.7444 49.8478C48.7444 49.8478 46.5715 46.2096 47.0108 45.0097C47.4678 43.7596 48.2284 43.0344 49.7026 43.3852Z" fill="#4CAF4F"/>
<path d="M55.5434 43.5473L56.7227 42.5626L57.5423 43.8392L56.9379 44.9035C56.9379 44.9035 55.9768 45.788 55.1277 45.3369C54.9929 45.034 54.9606 44.6954 55.0356 44.3725C55.1106 44.0495 55.2889 43.7598 55.5434 43.5473Z" fill="#E58A7B"/>
<path d="M58.8514 42.5656L58.7629 42.8869L56.8967 43.1994L56.7139 42.5626L58.8514 42.5656Z" fill="#E58A7B"/>
<path d="M48.2907 93.6265L44.9238 91.4507L45.5282 90.4011L49.3108 92.7273L48.2907 93.6265Z" fill="#4CAF4F"/>
<path d="M42.5711 95.3601C42.2757 95.324 41.9919 95.2234 41.7397 95.0653C41.7293 95.0617 41.7203 95.0549 41.7139 95.0459C41.7075 95.0369 41.7041 95.0262 41.7041 95.0152C41.7041 95.0042 41.7075 94.9934 41.7139 94.9844C41.7203 94.9754 41.7293 94.9687 41.7397 94.965C41.8311 94.9356 42.6242 94.6909 42.8542 94.8795C42.88 94.901 42.8997 94.929 42.9111 94.9606C42.9225 94.9923 42.9252 95.0264 42.919 95.0594C42.9149 95.1125 42.8973 95.1636 42.8679 95.208C42.8385 95.2524 42.7983 95.2885 42.751 95.3129C42.6958 95.3431 42.634 95.3593 42.5711 95.3601ZM41.9078 95.0358C42.2763 95.2245 42.5711 95.2923 42.7127 95.2215C42.7435 95.2045 42.7694 95.1798 42.788 95.1499C42.8066 95.1199 42.8172 95.0857 42.8188 95.0506C42.8188 95.0034 42.8188 94.9827 42.7923 94.9709C42.6684 94.8707 42.2262 94.9474 41.9019 95.0358H41.9078Z" fill="#263238"/>
<path d="M41.7604 95.0858C41.7448 95.0856 41.73 95.0793 41.7191 95.0682C41.7147 95.06 41.7124 95.0509 41.7124 95.0416C41.7124 95.0324 41.7147 95.0232 41.7191 95.0151C41.7191 94.9886 41.9107 94.3488 42.2114 94.2043C42.2499 94.1868 42.2916 94.1777 42.3338 94.1777C42.376 94.1777 42.4177 94.1868 42.4562 94.2043C42.4976 94.2174 42.5334 94.2439 42.558 94.2797C42.5825 94.3155 42.5944 94.3585 42.5918 94.4019C42.5711 94.6672 42.0316 95.0328 41.7839 95.0947L41.7604 95.0858ZM42.3323 94.281C42.3036 94.2819 42.2755 94.2889 42.2498 94.3016C42.067 94.3901 41.9166 94.735 41.8429 94.9443C42.1024 94.8352 42.4591 94.5463 42.4709 94.3842C42.4709 94.3576 42.4709 94.3252 42.4031 94.2957C42.381 94.2839 42.3571 94.2759 42.3323 94.2721V94.281Z" fill="#263238"/>
<path d="M46.7783 96.6338C46.4451 96.6338 45.9823 96.2063 45.7287 95.9439C45.7222 95.9349 45.7188 95.924 45.7188 95.9129C45.7188 95.9018 45.7222 95.891 45.7287 95.882C45.7345 95.8725 45.7428 95.8647 45.7527 95.8595C45.7625 95.8543 45.7736 95.8519 45.7847 95.8525C45.9027 95.8525 46.9257 96.0058 47.0702 96.2947C47.0855 96.3206 47.0935 96.3502 47.0935 96.3802C47.0935 96.4103 47.0855 96.4398 47.0702 96.4657C47.0485 96.5107 47.0158 96.5495 46.975 96.5784C46.9343 96.6072 46.8869 96.6253 46.8373 96.6308L46.7783 96.6338ZM45.9233 95.9852C46.2948 96.3449 46.622 96.5453 46.8078 96.5218C46.8403 96.5175 46.8713 96.5053 46.898 96.4863C46.9248 96.4673 46.9464 96.442 46.9611 96.4127C46.9677 96.4026 46.9712 96.3908 46.9712 96.3788C46.9712 96.3667 46.9677 96.3549 46.9611 96.3449C46.8844 96.1856 46.339 96.05 45.9233 95.9852Z" fill="#263238"/>
<path d="M45.9555 95.9703C45.8893 95.9722 45.8231 95.9673 45.7579 95.9556C45.7488 95.9542 45.7402 95.9505 45.733 95.9448C45.7258 95.9392 45.7201 95.9317 45.7167 95.9232C45.7123 95.9145 45.71 95.9049 45.71 95.8952C45.71 95.8854 45.7123 95.8758 45.7167 95.8671C45.7343 95.8465 46.1324 95.3659 46.5097 95.3335C46.6166 95.3252 46.7224 95.3591 46.8046 95.4279C46.9196 95.5281 46.9137 95.6165 46.8842 95.6726C46.8105 95.873 46.3004 95.9703 45.9555 95.9703ZM45.8788 95.8613C46.209 95.8789 46.7368 95.7698 46.8046 95.6254C46.8046 95.6254 46.8282 95.5782 46.7515 95.5134C46.721 95.4868 46.6854 95.4669 46.6468 95.4547C46.6083 95.4425 46.5676 95.4384 46.5274 95.4426C46.2732 95.5135 46.0469 95.6607 45.8788 95.8642V95.8613Z" fill="#263238"/>
<path d="M41.84 94.7674L39.3399 94.0599C39.2968 94.0468 39.2504 94.0501 39.2096 94.0692C39.1688 94.0882 39.1364 94.1216 39.1188 94.163L38.2755 96.0588C38.2557 96.1073 38.2465 96.1595 38.2483 96.2119C38.2501 96.2643 38.263 96.3158 38.2861 96.3628C38.3092 96.4099 38.342 96.4515 38.3824 96.485C38.4227 96.5185 38.4697 96.543 38.5203 96.557C39.4047 96.787 39.8293 96.8519 40.929 97.1673C41.6071 97.356 42.5741 97.7069 43.5087 97.9722C44.4433 98.2375 44.7558 97.3265 44.3932 97.1319C42.754 96.2652 42.6242 95.6578 42.1761 95.0092C42.0958 94.8917 41.9769 94.8062 41.84 94.7674Z" fill="#4CAF4F"/>
<path d="M45.7965 95.5989L43.662 94.1248C43.6258 94.0984 43.5812 94.0862 43.5366 94.0906C43.492 94.0949 43.4506 94.1155 43.4202 94.1483L42.005 95.6697C41.9706 95.709 41.9448 95.7552 41.9296 95.8052C41.9143 95.8552 41.9099 95.9079 41.9166 95.9598C41.9233 96.0117 41.941 96.0615 41.9684 96.1061C41.9959 96.1506 42.0325 96.1887 42.0758 96.218C42.8276 96.7222 43.2168 96.9256 44.1573 97.5772C44.7469 97.9781 45.8879 98.8685 46.6839 99.4228C47.48 99.9771 48.0726 99.2164 47.7895 98.9157C46.5218 97.5624 46.2446 96.7133 46.0353 95.9438C45.999 95.8042 45.9144 95.682 45.7965 95.5989Z" fill="#4CAF4F"/>
<path d="M44.0657 92.857L40.2183 90.9436L40.6163 89.8999L44.7262 91.9165L44.0657 92.857Z" fill="#4CAF4F"/>
<path d="M39.0623 56.7939L38.738 57.643C38.7055 57.7079 38.7822 57.7757 38.8913 57.7757H48.6441C48.7296 57.7757 48.8004 57.7344 48.8063 57.6813L48.8888 56.8381C48.8888 56.7821 48.821 56.732 48.7296 56.732H39.2156C39.1869 56.7293 39.1581 56.7335 39.1314 56.7443C39.1047 56.7551 39.081 56.7721 39.0623 56.7939Z" fill="#4CAF4F"/>
<path opacity="0.4" d="M39.0623 56.7939L38.738 57.643C38.7055 57.7079 38.7822 57.7757 38.8913 57.7757H48.6441C48.7296 57.7757 48.8004 57.7344 48.8063 57.6813L48.8888 56.8381C48.8888 56.7821 48.821 56.732 48.7296 56.732H39.2156C39.1869 56.7293 39.1581 56.7335 39.1314 56.7443C39.1047 56.7551 39.081 56.7721 39.0623 56.7939Z" fill="white"/>
<path d="M40.5985 57.8582H40.342C40.2919 57.8582 40.2536 57.8317 40.2565 57.7992L40.3774 56.7054C40.3774 56.6759 40.4246 56.6494 40.4747 56.6494H40.7312C40.7813 56.6494 40.8196 56.6759 40.8167 56.7054L40.6958 57.7992C40.6929 57.8317 40.6486 57.8582 40.5985 57.8582Z" fill="#4CAF4F"/>
<path d="M46.6131 57.8582H46.3596C46.3095 57.8582 46.2711 57.8317 46.2741 57.7992L46.392 56.7054C46.392 56.6759 46.4421 56.6494 46.4923 56.6494H46.7458C46.7959 56.6494 46.8372 56.6759 46.8313 56.7054L46.7134 57.7992C46.6986 57.8317 46.6662 57.8582 46.6131 57.8582Z" fill="#4CAF4F"/>
<g style="mix-blend-mode:multiply">
<path d="M40.3745 107.787C44.7366 107.787 48.2729 107.531 48.2729 107.215C48.2729 106.899 44.7366 106.643 40.3745 106.643C36.0123 106.643 32.4761 106.899 32.4761 107.215C32.4761 107.531 36.0123 107.787 40.3745 107.787Z" fill="#F5F5F5"/>
</g>
<path d="M45.1859 106.407C43.7885 106 42.2377 105.479 41.3001 104.933C41.2736 104.915 41.2441 104.907 41.2176 104.892V98.5648H44.045C44.2596 98.5521 44.4612 98.4579 44.6087 98.3015C44.7562 98.145 44.8383 97.9381 44.8383 97.7231C44.8383 97.5081 44.7562 97.3012 44.6087 97.1448C44.4612 96.9883 44.2596 96.8941 44.045 96.8814H41.2323V68.0415H39.5341V96.8814H36.7244C36.6097 96.8746 36.4948 96.8913 36.3868 96.9306C36.2787 96.9698 36.1799 97.0307 36.0962 97.1095C36.0126 97.1884 35.946 97.2834 35.9004 97.389C35.8549 97.4945 35.8314 97.6082 35.8314 97.7231C35.8314 97.8381 35.8549 97.9518 35.9004 98.0573C35.946 98.1628 36.0126 98.2579 36.0962 98.3367C36.1799 98.4156 36.2787 98.4765 36.3868 98.5157C36.4948 98.5549 36.6097 98.5716 36.7244 98.5648H39.5341V104.883C39.5076 104.883 39.481 104.907 39.4545 104.924C38.5022 105.479 36.9632 106 35.5658 106.398C35.4714 106.427 35.3903 106.488 35.3372 106.571C35.2842 106.655 35.2627 106.754 35.2766 106.852C35.2905 106.949 35.3389 107.039 35.413 107.104C35.4871 107.169 35.5821 107.205 35.6807 107.206H45.0709C45.1652 107.2 45.2544 107.161 45.3236 107.097C45.3929 107.033 45.438 106.947 45.4514 106.853C45.4649 106.76 45.4459 106.664 45.3975 106.583C45.3492 106.502 45.2745 106.44 45.1859 106.407Z" fill="#E0E0E0"/>
<path d="M45.6196 65.105H35.1356C34.2921 65.105 33.6084 65.7887 33.6084 66.6322V69.7485C33.6084 70.5919 34.2921 71.2757 35.1356 71.2757H45.6196C46.4631 71.2757 47.1468 70.5919 47.1468 69.7485V66.6322C47.1468 65.7887 46.4631 65.105 45.6196 65.105Z" fill="#4CAF4F"/>
<path d="M35.0381 71.2787V71.8153C35.0381 72.2575 35.5187 72.6172 36.1083 72.6172H44.6583C45.2479 72.6172 45.7285 72.2575 45.7285 71.8153V71.2787H35.0381Z" fill="#4CAF4F"/>
<path opacity="0.3" d="M35.0381 71.2787V71.8153C35.0381 72.2575 35.5187 72.6172 36.1083 72.6172H44.6583C45.2479 72.6172 45.7285 72.2575 45.7285 71.8153V71.2787H35.0381Z" fill="white"/>
</svg>
