<svg width="12" height="13" viewBox="0 0 12 13" fill="none" xmlns="http://www.w3.org/2000/svg">
<path d="M11.0919 12.4071V11.0717C11.0919 10.3633 10.8105 9.68393 10.3096 9.18303C9.80874 8.68214 9.12938 8.40074 8.421 8.40074H7.75327C7.57617 8.40074 7.40633 8.33039 7.28111 8.20516C7.15588 8.07994 7.08553 7.9101 7.08553 7.733V4.39434C7.08553 4.04015 6.94483 3.70047 6.69438 3.45002C6.44394 3.19957 6.10426 3.05887 5.75007 3.05887C5.39588 3.05887 5.0562 3.19957 4.80575 3.45002C4.5553 3.70047 4.4146 4.04015 4.4146 4.39434V10.4039L2.81204 8.26719C2.68765 8.10133 2.52634 7.96671 2.34091 7.87399C2.15547 7.78127 1.95099 7.733 1.74367 7.733H1.45387C0.876284 7.733 0.408203 8.20108 0.408203 8.77867C0.408203 8.96831 0.459619 9.15461 0.557108 9.31687L2.4114 12.4071M5.75007 1.05567V0.387939V1.05567ZM9.75647 5.06207H10.4242H9.75647ZM1.07594 5.06207H1.74367H1.07594ZM2.64043 1.95244L2.16835 1.48035L2.64043 1.95244ZM8.8597 1.95244L9.33179 1.48035L8.8597 1.95244Z" fill="#4CAF4F"/>
<path d="M11.0919 12.4071V11.0717C11.0919 10.3633 10.8105 9.68393 10.3096 9.18303C9.80874 8.68214 9.12938 8.40074 8.421 8.40074H7.75327C7.57617 8.40074 7.40633 8.33039 7.28111 8.20516C7.15588 8.07994 7.08553 7.9101 7.08553 7.733V4.39434C7.08553 4.04015 6.94483 3.70047 6.69438 3.45002C6.44394 3.19957 6.10426 3.05887 5.75007 3.05887V3.05887C5.39588 3.05887 5.0562 3.19957 4.80575 3.45002C4.5553 3.70047 4.4146 4.04015 4.4146 4.39434V10.4039L2.81204 8.26719C2.68765 8.10133 2.52634 7.96671 2.34091 7.87399C2.15547 7.78127 1.95099 7.733 1.74367 7.733H1.45387C0.876284 7.733 0.408203 8.20108 0.408203 8.77867C0.408203 8.96831 0.459619 9.15461 0.557108 9.31687L2.4114 12.4071M5.75007 1.05567V0.387939M9.75647 5.06207H10.4242M1.07594 5.06207H1.74367M2.64043 1.95244L2.16835 1.48035M8.8597 1.95244L9.33179 1.48035" stroke="#4CAF4F" stroke-width="0.667733" stroke-linecap="round" stroke-linejoin="round"/>
</svg>
